<?xml version="1.0" standalone="no"?>
<!DOCTYPE svg PUBLIC "-//W3C//DTD SVG 20010904//EN"
 "http://www.w3.org/TR/2001/REC-SVG-20010904/DTD/svg10.dtd">
<svg version="1.0" xmlns="http://www.w3.org/2000/svg"
 width="630.000000pt" height="630.000000pt" viewBox="0 0 630.000000 630.000000"
 preserveAspectRatio="xMidYMid meet">
<metadata>
Created by potrace 1.14, written by Peter Selinger 2001-2017
</metadata>
<g transform="translate(0.000000,630.000000) scale(0.100000,-0.100000)"
fill="#000000" stroke="none">
<path d="M437 6205 c-61 -17 -183 -87 -179 -104 1 -7 -2 -10 -7 -7 -13 9 -88
-80 -119 -139 -52 -103 -52 -101 -52 -819 0 -368 2 -667 5 -664 3 2 6 136 6
296 1 161 5 295 10 298 5 3 10 -65 11 -158 l2 -163 6 155 c3 85 7 151 9 145 2
-5 7 -75 11 -155 l6 -145 2 132 c1 72 5 138 8 147 6 14 86 16 805 16 526 0
799 -3 799 -10 0 -10 -186 -12 -1132 -10 l-468 1 0 -26 0 -25 403 -1 c221 -1
409 0 417 1 8 1 20 3 25 3 6 1 10 -7 10 -18 0 -14 -6 -19 -17 -17 -12 2 -18
-4 -19 -15 0 -16 -1 -16 -9 2 -6 13 -9 15 -9 5 0 -8 6 -26 15 -40 l14 -25 -2
25 c-2 14 2 25 7 25 6 0 21 9 33 21 19 18 21 25 13 48 -8 20 -7 26 3 26 10 0
12 -7 8 -22 -5 -19 -3 -21 9 -11 8 7 25 10 37 6 15 -3 24 0 28 11 9 22 31 20
39 -4 6 -19 15 -20 321 -20 266 0 314 -2 314 -14 0 -8 -10 -17 -22 -19 -17 -3
-15 -5 9 -6 26 -1 30 2 26 19 -3 11 -1 20 5 20 6 0 15 24 20 53 9 49 10 46 11
-50 l1 -103 -110 0 c-67 0 -110 4 -110 10 0 6 11 10 25 10 14 0 25 5 25 10 0
6 35 11 83 12 l82 1 -100 7 c-55 4 -102 6 -104 4 -2 -2 7 -4 20 -4 18 0 20 -3
10 -9 -8 -5 -20 -7 -28 -4 -7 3 -13 0 -13 -6 0 -6 -7 -11 -15 -11 -22 0 -18
-17 5 -23 17 -4 20 -14 20 -56 0 -54 -10 -62 -51 -41 -13 7 -19 7 -19 0 0 -5
-9 -10 -20 -10 -20 0 -21 -5 -18 -112 l3 -113 53 0 52 0 0 -49 c0 -39 -3 -47
-15 -42 -9 3 -15 0 -15 -10 0 -8 -7 -22 -15 -31 -14 -13 -12 -18 19 -42 40
-29 45 -41 18 -41 -10 0 -21 -3 -25 -6 -7 -7 17 -34 31 -34 9 0 21 -31 22 -52
0 -15 -19 -8 -45 16 -17 16 -34 22 -55 20 -21 -3 -32 2 -40 16 -6 11 -20 20
-30 20 -22 0 -53 28 -58 51 -1 8 -7 23 -12 34 -12 27 -19 75 -10 75 7 0 -5
118 -14 127 -3 4 -6 -2 -7 -13 0 -17 -2 -17 -11 4 -6 12 -17 22 -25 22 -10 0
-12 6 -8 20 4 13 1 22 -9 26 -9 3 -16 12 -16 20 0 8 -6 14 -13 14 -7 0 -18 9
-25 21 -9 15 -21 20 -37 17 -13 -3 -30 -1 -37 3 -10 7 -10 9 2 10 24 1 -21 17
-51 18 -23 1 -26 4 -21 29 3 15 9 30 14 33 9 6 16 28 17 57 1 7 6 10 11 7 6
-3 10 -1 10 5 0 7 -7 9 -16 6 -9 -3 -22 -6 -29 -6 -8 0 -17 -9 -20 -20 -3 -11
-13 -20 -21 -20 -8 0 -12 -5 -9 -10 9 -14 -4 -52 -16 -45 -5 4 -9 0 -10 -7 0
-7 -2 -21 -4 -30 -2 -11 2 -15 11 -11 8 3 14 -1 14 -11 0 -18 -8 -20 -28 -7
-22 13 -20 108 3 125 10 7 15 18 11 24 -3 6 1 18 10 27 14 13 19 14 26 3 6 -8
7 -4 2 12 -8 31 -4 27 -39 32 -19 2 -30 -2 -31 -9 -1 -7 -2 -22 -3 -34 0 -11
-9 -23 -19 -26 -14 -3 -18 -11 -14 -29 3 -19 0 -24 -16 -24 -24 0 -45 -31 -36
-53 7 -19 -25 -31 -43 -15 -11 9 -16 9 -24 -3 -5 -8 -9 -9 -9 -3 0 7 -10 14
-22 17 -22 6 -22 6 -4 -8 11 -8 14 -15 8 -15 -7 0 -12 -7 -12 -15 0 -8 -7 -15
-15 -15 -18 0 -20 16 -3 23 7 3 1 6 -14 6 -16 1 -28 6 -28 12 0 5 6 7 13 3 7
-5 6 0 -3 11 -14 17 -15 17 -18 1 -2 -10 -10 -15 -18 -12 -7 3 -20 -4 -28 -15
-9 -14 -16 -17 -21 -9 -4 6 -1 18 6 26 10 12 9 13 -5 8 -9 -3 -16 -10 -16 -15
0 -5 -7 -9 -16 -9 -8 0 -13 -4 -9 -9 3 -5 0 -13 -6 -17 -8 -5 -10 -1 -7 14 4
13 0 23 -9 26 -8 3 -11 11 -7 17 5 9 11 7 19 -4 14 -19 26 -12 18 9 -6 16 -43
19 -43 4 0 -5 -4 -10 -9 -10 -5 0 -7 9 -4 20 3 11 14 20 24 20 19 0 35 17 25
27 -3 3 -12 0 -20 -6 -10 -8 -16 -9 -21 -1 -3 5 1 10 9 10 9 0 16 8 16 19 0
14 -10 21 -35 25 -26 5 -35 12 -35 26 0 11 5 20 12 20 6 0 9 2 6 5 -8 8 -39
-6 -33 -15 3 -5 1 -11 -5 -15 -5 -3 -10 1 -10 9 0 10 -6 13 -15 10 -28 -11
-15 -31 28 -44 23 -7 36 -15 30 -17 -7 -3 -13 -16 -13 -30 0 -17 -4 -23 -14
-20 -13 5 -17 -8 -18 -75 -1 -32 -18 -39 -18 -8 0 12 -7 20 -16 20 -9 0 -14 6
-11 13 4 10 -2 13 -19 9 -13 -2 -24 -8 -24 -13 0 -5 8 -6 18 -3 14 5 15 4 2
-5 -8 -6 -23 -11 -32 -11 -9 0 -19 -8 -21 -17 -3 -11 -5 -7 -6 10 0 15 -5 27
-11 27 -5 0 -10 -4 -10 -9 0 -4 -12 -6 -27 -3 l-28 5 35 14 c31 12 32 12 5 7
-16 -4 -46 -10 -65 -14 -28 -6 -30 -8 -10 -9 20 -1 22 -3 10 -11 -10 -6 -11
-10 -2 -10 6 0 12 -5 12 -10 0 -6 -10 -8 -24 -4 -30 7 -69 -4 -60 -17 3 -6 -3
-13 -15 -16 -12 -3 -21 -13 -21 -22 0 -14 -2 -14 -10 -1 -8 12 -10 9 -10 -12
0 -20 -4 -26 -15 -22 -13 6 -20 -6 -16 -28 0 -5 -4 -8 -10 -8 -5 0 -8 -4 -4
-9 3 -5 1 -12 -5 -16 -17 -10 -11 -67 8 -82 13 -10 13 -13 2 -11 -11 2 -15 -7
-15 -37 0 -25 4 -39 12 -38 16 3 12 -35 -4 -41 -19 -8 -17 -120 2 -136 8 -7
15 -23 15 -35 0 -13 7 -25 15 -29 8 -3 15 -16 15 -30 0 -13 7 -27 16 -30 8 -3
12 -10 9 -16 -3 -5 3 -10 14 -10 12 0 21 -7 21 -15 0 -8 7 -15 16 -15 12 0 15
-7 11 -26 -3 -19 1 -28 17 -34 17 -7 18 -9 4 -9 -21 -1 -26 -51 -5 -51 8 0 14
-8 14 -17 -1 -57 4 -73 21 -73 16 -1 16 -1 0 -11 -23 -13 -23 -49 0 -49 16 -1
16 -1 0 -11 -23 -13 -25 -79 -3 -79 9 0 15 -6 14 -12 -4 -31 2 -47 19 -51 16
-4 16 -5 0 -6 -23 -1 -23 -37 -1 -50 16 -9 16 -10 1 -11 -20 0 -25 -14 -20
-52 3 -16 10 -28 19 -28 10 0 14 -10 12 -34 -2 -22 3 -42 14 -54 21 -23 22
-42 2 -42 -12 0 -15 -13 -15 -60 0 -63 18 -95 57 -102 10 -2 31 -16 47 -32 20
-21 39 -30 62 -30 21 -1 38 -8 47 -20 15 -20 37 -14 37 10 0 21 38 17 45 -6 8
-25 33 -26 43 -2 5 13 18 19 40 19 51 2 52 2 53 21 0 13 2 14 6 2 12 -31 53
-34 53 -5 0 9 8 12 20 10 13 -2 25 4 33 16 6 10 17 19 24 19 7 0 12 5 11 12
-2 7 3 12 10 13 7 0 16 5 20 11 4 7 18 14 32 16 14 2 24 9 22 16 -3 17 15 15
22 -3 8 -21 53 -19 66 3 10 16 10 16 20 0 6 -10 20 -18 30 -18 23 0 61 -30 54
-42 -3 -4 1 -8 8 -8 8 0 22 -10 32 -22 18 -21 19 -21 33 -2 13 18 15 18 24 2
6 -10 16 -15 26 -11 9 4 21 0 27 -9 6 -8 23 -18 38 -21 21 -6 30 -3 38 13 13
24 38 26 46 5 8 -20 70 -20 77 -1 6 14 58 16 57 3 0 -4 0 -30 0 -57 l0 -51
-34 6 c-61 12 -76 1 -76 -56 l0 -49 -49 0 -50 0 -3 -105 c-2 -58 -1 -110 0
-115 2 -6 26 -10 53 -10 l49 0 0 -50 0 -50 -50 0 -50 0 0 -49 0 -50 -52 -3
-53 -3 0 -110 0 -110 102 -3 102 -3 3 -52 3 -52 52 -3 52 -3 3 -102 3 -102 53
-3 52 -3 0 -55 0 -55 57 3 58 3 0 50 0 50 108 3 107 3 0 54 0 55 55 0 55 0 0
50 0 50 105 0 105 0 0 -50 0 -50 49 0 50 0 3 -53 3 -52 108 -3 107 -3 0 -54 0
-55 54 0 55 0 3 -52 3 -53 53 -3 52 -3 0 -210 0 -209 -55 0 -55 0 0 -55 0 -55
-55 0 -54 0 -3 -107 -3 -108 -50 0 -50 0 -3 -107 -3 -108 -159 0 -160 0 0 -45
0 -45 -115 0 -115 0 0 -40 0 -40 -176 0 -176 0 4 38 3 37 -178 3 -177 2 0 -40
0 -40 -170 0 -170 0 0 40 0 40 -177 3 c-98 1 -251 1 -340 -1 l-163 -3 0 46 0
46 -132 -3 -133 -3 0 -40 0 -40 129 -5 130 -5 0 -40 1 -40 340 -5 340 -5 1
-40 0 -40 175 0 174 0 3 43 3 42 169 0 169 0 3 -42 3 -43 170 0 170 0 3 43 3
42 60 0 c45 0 59 -3 59 -14 0 -11 -14 -16 -47 -18 l-48 -3 -7 -45 c-11 -64 -6
-70 52 -70 l50 0 0 -55 0 -56 -62 3 -62 3 0 40 -1 40 -169 0 -170 0 0 -40 -1
-40 -177 -3 -178 -2 0 45 0 45 -595 0 -595 0 0 -29 c0 -40 -9 -61 -26 -61 -12
0 -12 -4 2 -25 9 -14 20 -22 25 -19 5 3 6 -1 4 -9 -7 -16 64 -89 78 -80 6 3 7
2 4 -4 -18 -29 129 -106 233 -122 91 -15 5220 -15 5310 0 95 15 194 67 262
136 53 54 106 138 123 191 l6 22 -328 -2 -328 -3 -2 -30 c0 -16 -2 -36 -2 -42
-1 -9 -25 -13 -86 -13 -80 0 -85 1 -90 22 -2 13 -4 32 -2 43 2 19 -4 20 -168
20 l-170 0 -3 -42 -3 -43 -174 0 -174 0 -3 43 -3 42 -44 0 c-66 0 -65 23 1 27
l53 3 3 118 3 117 167 -2 167 -3 3 -42 3 -43 175 0 174 0 0 45 0 45 170 0 170
0 0 -45 0 -45 255 0 255 0 0 43 0 44 -122 6 c-68 3 -180 4 -250 0 l-127 -5 -3
43 -3 44 -175 0 -175 0 -3 -42 -3 -43 -170 0 -169 0 0 45 0 45 -175 0 -175 0
0 -45 0 -45 -50 0 -50 0 0 45 0 45 -159 0 -160 0 -3 53 -3 52 -107 3 -108 3 0
104 0 105 -27 1 c-16 1 -39 2 -53 3 l-25 1 -2 160 -1 160 -51 3 -51 3 0 145 0
145 78 -1 c42 -1 83 -1 90 -1 8 1 12 18 12 51 l0 50 -100 0 -100 0 0 49 0 50
-41 3 -42 3 2 115 c2 76 6 117 14 122 9 6 9 8 0 8 -7 0 -13 9 -13 21 0 17 5
20 37 17 l37 -3 -3 -47 -3 -48 51 0 51 0 0 -50 0 -50 51 0 52 0 -5 -45 -6 -45
54 0 c49 0 54 2 60 25 3 14 3 36 0 50 -6 24 -5 25 44 25 l50 0 0 -50 0 -50 50
0 50 0 0 -50 0 -50 45 0 c44 0 45 -1 46 -32 2 -64 1 -63 55 -66 l52 -3 -2 48
-1 48 45 0 45 0 0 -45 c0 -44 -1 -45 -33 -47 -52 -2 -61 -9 -58 -40 2 -15 4
-36 5 -45 1 -14 10 -18 45 -18 l45 0 3 -47 3 -47 44 0 44 -1 1 -45 1 -45 48
-3 47 -3 0 -44 c0 -49 9 -58 59 -59 36 -1 36 -1 39 -48 l3 -48 49 0 49 0 3
-47 3 -48 95 0 95 0 0 95 0 95 -47 3 -47 3 -3 47 -3 47 -47 3 -47 3 -3 47 c-3
45 -5 47 -33 48 -16 1 -38 2 -47 3 -13 1 -18 12 -20 49 -3 43 -5 47 -27 44
-13 -2 -34 -1 -47 2 -21 6 -24 12 -24 57 0 42 -3 50 -17 48 -10 -1 -30 -1 -45
0 -26 1 -28 4 -28 46 l0 45 -49 0 -50 0 -3 47 -3 48 -46 3 -47 3 0 39 c-1 54
-6 60 -58 60 l-44 0 0 50 0 50 -45 0 c-36 0 -45 4 -46 18 0 9 -3 29 -5 45 -5
26 -4 27 46 27 l50 0 0 50 0 50 48 0 c27 0 51 2 53 4 2 3 3 25 1 50 l-4 45
-46 3 -47 3 -3 48 -3 47 -45 0 c-28 0 -44 5 -45 13 0 6 -1 28 -2 47 l-2 35
-97 3 -98 3 -1 -33 c-1 -18 -1 -41 0 -50 2 -16 -8 -18 -93 -18 l-95 0 -3 48
c-3 47 -3 47 -40 50 l-38 3 0 216 0 216 50 -5 c51 -5 66 6 58 43 -4 20 41 24
48 5 8 -21 72 -22 81 -1 3 9 14 15 24 13 10 -2 24 5 31 14 8 11 34 20 71 24
l57 7 0 -52 c0 -28 3 -51 8 -51 4 0 50 -2 102 -5 55 -2 100 1 107 6 7 6 10 27
7 55 l-4 44 55 0 c50 0 55 2 55 23 0 12 6 29 13 37 15 19 47 22 47 5 0 -16 23
-25 65 -25 25 0 35 5 40 20 8 25 16 25 45 0 32 -28 51 -25 80 10 31 37 55 38
88 3 14 -15 34 -29 45 -30 11 -2 30 -14 42 -27 43 -46 175 -31 175 20 0 18 33
11 51 -10 19 -23 69 -15 69 10 0 11 6 13 19 9 13 -4 24 1 35 17 13 18 16 19
16 5 0 -20 38 -24 46 -3 3 8 15 11 30 8 17 -3 24 0 24 12 0 20 7 20 27 0 14
-14 18 -14 31 0 13 13 18 11 45 -16 l30 -30 19 24 c14 19 18 20 18 6 0 -23 29
-23 46 0 8 9 14 12 14 5 0 -21 46 -63 69 -63 11 0 21 -4 21 -10 0 -5 9 -10 20
-10 12 0 34 -14 50 -30 31 -32 83 -41 94 -17 5 10 7 10 12 0 8 -18 41 -16 48
2 3 8 17 15 31 15 16 0 25 6 25 15 0 9 9 15 25 15 36 0 65 33 65 74 0 21 6 36
15 40 8 3 15 12 15 21 0 9 -7 18 -15 21 -8 4 -15 15 -15 25 0 11 7 22 15 25 9
4 15 19 15 35 0 17 -6 32 -15 35 -20 8 -19 40 0 48 11 4 15 17 14 45 -2 27 -7
37 -16 34 -8 -3 -13 3 -13 16 0 23 16 29 23 9 2 -7 4 2 5 19 0 21 -5 36 -16
43 -16 9 -16 9 1 10 13 0 17 9 17 40 0 28 -4 40 -14 40 -9 0 -14 9 -13 20 1
22 13 27 20 8 2 -7 4 25 5 72 0 47 -2 77 -5 68 -7 -27 -23 -21 -23 7 0 14 -7
28 -15 31 -10 4 -15 20 -15 45 0 26 -5 42 -15 45 -9 4 -15 19 -15 35 0 20 -5
29 -16 29 -10 0 -14 6 -10 15 7 20 -3 47 -16 39 -5 -3 -12 3 -15 15 -3 12 -8
21 -12 21 -4 0 -22 14 -39 31 -19 19 -38 29 -47 25 -9 -3 -15 0 -15 9 0 7 -9
16 -19 20 -12 3 -18 12 -15 20 4 9 -3 13 -27 11 -24 -2 -33 2 -37 16 -6 25
-72 26 -72 1 0 -15 -2 -16 -10 -3 -15 23 -12 60 4 60 8 0 18 9 21 20 3 11 11
20 16 20 5 0 9 7 9 15 0 8 -7 15 -15 15 -8 0 -15 -7 -15 -15 0 -8 -7 -15 -15
-15 -9 0 -26 -9 -38 -20 -12 -11 -27 -18 -35 -15 -7 3 -20 5 -28 5 -8 0 -14 7
-14 15 0 8 -4 15 -10 15 -5 0 -10 -7 -10 -15 0 -8 4 -15 9 -15 5 0 11 -14 13
-31 6 -37 -27 -79 -62 -79 -13 0 -24 -8 -27 -20 -3 -11 -12 -20 -19 -20 -8 0
-14 -4 -14 -10 0 -5 -7 -10 -15 -10 -8 0 -15 -4 -15 -8 0 -14 -36 -52 -49 -52
-6 0 -11 -7 -11 -15 0 -8 -7 -15 -15 -15 -10 0 -15 -11 -16 -32 -2 -28 -2 -29
-6 -8 -3 14 -18 37 -34 52 -32 30 -42 88 -14 88 13 0 20 18 16 43 -1 4 6 10
14 13 9 4 15 19 15 40 0 19 5 34 12 34 6 0 0 9 -12 20 -13 12 -25 28 -26 36
-5 30 -14 45 -24 39 -5 -3 -10 -2 -10 4 0 5 8 12 18 14 16 4 16 5 -1 6 -10 0
-15 6 -12 12 4 6 -2 13 -14 16 -12 3 -21 12 -21 19 0 8 -4 14 -9 14 -5 0 -11
9 -14 19 -4 15 -13 18 -50 16 -38 -1 -46 1 -51 18 -4 16 -10 18 -31 13 -20 -5
-26 -3 -22 6 2 7 10 12 17 10 11 -3 11 0 0 12 -8 11 -9 16 -1 16 6 0 11 7 11
15 0 8 9 15 20 15 20 0 21 5 18 113 l-3 112 -49 5 -49 5 -1 50 c-1 42 -4 50
-21 53 -11 2 -29 7 -40 12 -11 5 -38 11 -60 13 -33 3 -30 4 15 5 39 1 66 -4
93 -18 36 -19 56 -20 552 -20 405 0 515 3 515 13 0 8 4 7 10 -3 5 -8 8 -28 5
-45 -3 -16 -1 -75 4 -130 6 -76 9 7 12 340 3 378 5 324 9 -385 l6 -825 -1 950
0 950 -23 60 c-37 97 -131 221 -159 211 -8 -3 -11 -1 -8 4 8 13 -59 56 -131
83 l-59 22 -2670 2 c-2190 1 -2679 -1 -2718 -12z m3498 -355 c3 -5 1 -10 -4
-10 -6 0 -11 5 -11 10 0 6 2 10 4 10 3 0 8 -4 11 -10z m-418 -146 c-3 -3 -12
-4 -19 -1 -8 3 -5 6 6 6 11 1 17 -2 13 -5z m63 -4 c0 -5 -2 -10 -4 -10 -3 0
-8 5 -11 10 -3 6 -1 10 4 10 6 0 11 -4 11 -10z m-1620 -60 c0 -5 -5 -10 -11
-10 -5 0 -7 5 -4 10 3 6 8 10 11 10 2 0 4 -4 4 -10z m-73 -6 c-3 -3 -12 -4
-19 -1 -8 3 -5 6 6 6 11 1 17 -2 13 -5z m1808 -33 c3 -6 -16 -11 -42 -13 -49
-3 -60 -23 -13 -24 18 0 24 -5 22 -17 -2 -9 2 -17 8 -17 5 0 10 7 10 15 0 8 5
15 11 15 6 0 9 -6 6 -14 -3 -8 -1 -17 6 -20 7 -2 -15 -5 -49 -5 l-61 -1 3 43
c1 23 3 43 3 45 3 7 91 1 96 -7z m237 -43 c2 -21 0 -38 -4 -38 -4 0 -8 21 -7
48 1 52 6 48 11 -10z m76 7 c1 -34 -2 -45 -14 -45 -9 0 -12 5 -8 12 4 6 7 26
6 45 -1 18 2 33 7 33 5 0 9 -20 9 -45z m-221 13 c-3 -8 -6 -5 -6 6 -1 11 2 17
5 13 3 -3 4 -12 1 -19z m-387 -43 c0 -8 -4 -15 -10 -15 -5 0 -10 7 -10 15 0 8
5 15 10 15 6 0 10 -7 10 -15z m70 0 c0 -8 -4 -15 -10 -15 -5 0 -10 7 -10 15 0
8 5 15 10 15 6 0 10 -7 10 -15z m316 -12 c-10 -10 -19 5 -10 18 6 11 8 11 12
0 2 -7 1 -15 -2 -18z m-1029 -29 c-3 -3 -12 -4 -19 -1 -8 3 -5 6 6 6 11 1 17
-2 13 -5z m63 -4 c0 -12 -8 -12 -35 0 -18 8 -17 9 8 9 15 1 27 -3 27 -9z m181
-67 c21 3 39 1 39 -4 0 -5 -20 -9 -45 -9 l-45 0 2 48 1 47 4 -44 4 -43 40 5z
m358 50 c0 -26 -1 -26 -9 -7 -8 20 -16 22 -84 22 -57 0 -78 -4 -85 -15 -7 -13
-9 -11 -14 6 -5 20 -2 21 94 21 l99 0 -1 -27z m153 -12 c-5 -50 2 -53 161 -59
l128 -4 -3 -52 -3 -51 -52 -3 -53 -3 0 -53 0 -53 58 1 57 2 3 52 3 53 47 -3
47 -3 0 -50 c0 -49 -1 -50 -30 -51 -66 -2 -65 -1 -65 -53 l0 -49 100 -7 100
-7 0 -47 0 -46 -97 -3 c-53 -2 -100 -5 -105 -8 -4 -3 -8 -28 -8 -55 l0 -50
-52 3 c-57 3 -55 1 -57 71 l-1 37 -105 0 -105 0 0 -56 0 -56 -102 4 -103 3 -5
-55 -5 -55 -70 -5 c-41 -3 -65 -8 -57 -13 18 -12 15 -38 -5 -35 -11 2 -18 -4
-20 -17 -3 -18 -2 -18 5 -2 7 18 9 18 22 2 18 -22 1 -32 -45 -27 -23 3 -36 10
-37 21 -3 42 -5 70 -6 123 l-2 57 -52 3 -53 3 -3 39 c-6 71 1 82 53 78 l45 -4
0 41 0 41 -41 0 c-29 0 -40 -4 -36 -12 2 -7 1 -22 -4 -33 -6 -16 -8 -12 -8 16
l-1 37 95 7 c51 4 99 4 105 0 5 -3 9 -27 8 -53 l-3 -47 -52 -3 -53 -3 0 -55 0
-54 110 0 110 0 1 78 c2 137 -2 127 49 127 l45 0 0 -45 0 -45 55 0 55 0 3 57
c3 49 6 57 24 60 12 2 23 10 25 18 3 11 2 11 -4 3 -5 -7 -29 -15 -53 -18 -25
-4 -55 -8 -67 -11 -21 -4 -23 -1 -23 46 0 38 4 50 15 50 11 0 15 -12 17 -42
l1 -43 7 45 7 45 3 -45 3 -45 7 45 7 45 1 -42 c2 -54 22 -57 22 -3 0 39 1 40
35 40 28 0 35 -4 33 -16 -2 -10 3 -19 11 -22 10 -3 12 1 8 17 -3 14 -1 21 10
21 11 0 14 -10 11 -47 l-3 -48 56 -3 c52 -3 57 -1 61 20 2 13 1 37 -2 53 -5
28 -8 30 -53 30 -26 0 -48 5 -49 10 -1 6 -2 26 -3 45 -1 19 -3 41 -4 48 -1 8
-9 10 -26 6 -14 -3 -40 -3 -58 0 -31 6 -32 7 -29 49 3 23 9 48 15 55 6 8 10
34 8 58 -2 32 1 44 11 44 10 0 12 -11 10 -39z m68 16 c0 -34 -11 -39 -31 -15
-25 28 -24 38 6 38 20 0 25 -5 25 -23z m470 3 c-6 -11 -13 -20 -15 -20 -3 0
-5 9 -5 20 0 11 7 20 15 20 13 0 14 -4 5 -20z m70 12 c0 -14 -11 -21 -26 -15
-21 8 -17 23 6 23 11 0 20 -4 20 -8z m-70 -62 c9 -16 8 -20 -5 -20 -8 0 -15 9
-15 20 0 11 2 20 5 20 2 0 9 -9 15 -20z m-860 -11 c0 -5 -4 -9 -10 -9 -5 0
-10 7 -10 16 0 8 5 12 10 9 6 -3 10 -10 10 -16z m170 6 c0 -12 -13 -15 -57
-15 -42 0 -54 3 -43 10 8 6 26 8 40 5 14 -3 32 -1 40 5 20 13 20 13 20 -5z
m738 -1 c6 3 14 1 17 -5 5 -7 -1 -9 -16 -7 -12 1 -24 10 -26 18 -4 12 -3 13 5
1 5 -7 14 -11 20 -7z m-1453 -124 l0 -90 38 0 c21 0 36 -4 33 -9 -7 -10 -86
-9 -86 2 0 4 0 48 0 97 0 50 3 90 8 90 4 0 7 -41 7 -90z m283 48 c-3 -43 -3
-43 -43 -43 l-39 0 -2 43 -1 42 44 0 44 0 -3 -42z m218 -3 l2 -44 -44 1 -44 1
0 43 0 44 43 0 42 0 1 -45z m252 15 c-3 -17 -1 -33 4 -36 10 -6 1 -24 -13 -24
-5 0 -9 20 -9 45 0 26 5 45 11 45 7 0 9 -12 7 -30z m62 20 c0 -5 -7 -10 -15
-10 -8 0 -18 0 -22 -1 -4 0 -9 4 -11 10 -2 6 8 11 22 11 14 0 26 -4 26 -10z
m545 -1 c11 -17 2 -18 -19 -3 -17 12 -17 14 -4 14 9 0 20 -5 23 -11z m718 -62
c29 -3 28 -4 -8 -5 l-41 -2 6 43 5 42 3 -37 c3 -33 6 -37 35 -41z m-2843 -38
l25 -7 -26 -1 c-29 -1 -40 15 -38 57 1 23 3 22 8 -8 4 -25 12 -36 31 -41z
m1563 40 c-5 -19 -7 -19 -22 -4 -14 14 -14 17 -1 25 20 12 29 4 23 -21z m484
-1 c-3 -8 -6 -5 -6 6 -1 11 2 17 5 13 3 -3 4 -12 1 -19z m83 8 c0 -17 -14 -29
-23 -20 -8 8 3 34 14 34 5 0 9 -6 9 -14z m107 -50 c6 -6 -28 -10 -54 -7 -13 2
-17 -10 -14 -41 1 -10 -3 -18 -8 -18 -6 0 -11 17 -11 38 l0 38 40 -2 c23 -1
44 -4 47 -8z m-2157 -5 c0 -5 -11 -8 -25 -7 -33 1 -33 16 0 16 14 0 25 -4 25
-9z m744 -23 c-9 -14 -23 2 -17 18 4 12 8 13 14 3 4 -7 5 -17 3 -21z m1551 23
c3 -5 1 -12 -5 -16 -5 -3 -10 1 -10 9 0 18 6 21 15 7z m-143 -43 c-5 -21 -6
-21 -12 -2 -8 21 -3 37 10 29 4 -3 6 -15 2 -27z m715 16 c-3 -3 -12 -4 -19 -1
-8 3 -5 6 6 6 11 1 17 -2 13 -5z m-2867 -91 l0 -65 -50 4 c-29 2 -50 -1 -50
-7 0 -5 -5 -3 -10 5 -8 12 -1 16 38 20 51 5 49 2 51 83 2 66 21 30 21 -40z
m2370 57 c0 -5 -21 -9 -47 -8 l-48 1 45 7 c25 4 46 8 48 8 1 1 2 -2 2 -8z
m508 -7 c-10 -2 -28 -2 -40 0 -13 2 -5 4 17 4 22 1 32 -1 23 -4z m-711 -23 c7
-8 10 -21 7 -29 -8 -23 6 -51 21 -44 8 3 12 10 8 17 -3 6 -2 7 2 3 16 -14 13
-36 -3 -37 -10 0 -45 -3 -79 -6 l-63 -6 0 54 c0 30 3 57 6 61 12 11 89 2 101
-13z m-891 0 c22 0 24 -4 24 -50 l0 -50 -50 0 -50 0 0 49 c0 49 10 64 38 55 8
-2 25 -4 38 -4z m-704 -25 c-2 -14 -6 -25 -8 -25 -2 0 -4 11 -4 25 0 14 4 25
9 25 4 0 6 -11 3 -25z m1643 16 c3 -5 2 -12 -3 -15 -5 -3 -9 1 -9 9 0 17 3 19
12 6z m45 -36 c0 -29 -4 -45 -13 -45 -8 0 -11 14 -9 45 2 25 8 45 13 45 5 0 9
-20 9 -45z m690 -125 c6 0 11 33 12 73 l2 72 5 -75 c5 -56 3 -76 -7 -78 -7 -2
-10 -8 -7 -13 4 -5 -1 -9 -9 -9 -14 0 -16 15 -14 103 l2 102 3 -87 c2 -49 8
-88 13 -88z m37 103 c-3 -10 -5 -4 -5 12 0 17 2 24 5 18 2 -7 2 -21 0 -30z
m-2337 -87 c0 -49 -2 -54 -20 -49 -20 5 -29 43 -10 43 6 0 10 11 10 23 0 21 7
37 17 37 2 0 3 -24 3 -54z m1780 18 c0 -13 5 -24 11 -24 5 0 7 -4 4 -10 -3 -5
-1 -10 4 -10 6 0 11 9 11 20 0 11 -4 20 -10 20 -15 0 -12 27 4 33 21 8 26 -2
26 -49 l0 -42 -45 0 -45 0 0 48 c0 43 2 48 20 43 13 -3 20 -14 20 -29z m557
-11 c-3 -10 -5 -2 -5 17 0 19 2 27 5 18 2 -10 2 -26 0 -35z m-2417 28 c0 -6
-21 -11 -47 -13 -41 -3 -48 -6 -51 -25 -3 -20 1 -22 50 -21 29 0 59 5 66 11 9
7 12 4 12 -12 0 -19 -6 -21 -59 -21 -33 0 -66 -3 -75 -6 -13 -5 -16 2 -16 45
l0 51 60 0 c33 0 60 -4 60 -9z m220 -36 c0 -25 -4 -45 -9 -45 -7 0 -9 75 -2
88 6 12 11 -6 11 -43z m70 -2 c0 -25 -2 -44 -4 -42 -8 10 -13 89 -5 89 5 0 9
-21 9 -47z m-243 15 c-3 -8 -6 -5 -6 6 -1 11 2 17 5 13 3 -3 4 -12 1 -19z
m203 6 c0 -8 -4 -12 -10 -9 -5 3 -10 10 -10 16 0 5 5 9 10 9 6 0 10 -7 10 -16z
m-310 -14 c0 -5 -5 -10 -11 -10 -5 0 -7 5 -4 10 3 6 8 10 11 10 2 0 4 -4 4
-10z m3690 0 c0 -7 -184 -10 -532 -10 -384 0 -529 -3 -518 -11 12 -9 11 -9 -5
-3 -11 4 -48 10 -82 12 -35 2 -63 8 -63 13 0 5 244 9 600 9 393 0 600 -3 600
-10z m-3155 -20 c3 -5 1 -10 -4 -10 -6 0 -11 5 -11 10 0 6 2 10 4 10 3 0 8 -4
11 -10z m-1985 -10 c0 -5 -2 -10 -4 -10 -3 0 -8 5 -11 10 -3 6 -1 10 4 10 6 0
11 -4 11 -10z m3998 -17 c-15 -2 -42 -2 -60 0 -18 2 -6 4 27 4 33 0 48 -2 33
-4z m-778 -54 l0 -42 50 5 c35 4 50 2 47 -6 -8 -25 -305 -30 -308 -5 -1 5 -1
20 -1 34 0 14 0 29 1 35 1 5 19 9 41 8 22 -1 43 2 47 5 3 4 33 7 65 7 l58 0 0
-41z m90 18 c0 -9 -10 -12 -30 -9 -16 2 -30 8 -30 13 0 5 14 9 30 9 18 0 30
-5 30 -13z m318 -12 c2 -16 1 -17 -7 -6 -6 9 -36 16 -89 19 l-79 4 5 -32 c4
-30 6 -32 43 -28 27 2 39 0 39 -9 0 -8 -13 -13 -34 -13 -56 0 -66 8 -66 51 l0
40 92 -3 c84 -3 93 -5 96 -23z m-1713 -180 l7 -105 54 0 54 0 0 -55 c0 -60 1
-59 -67 -55 -33 1 -43 -2 -43 -14 0 -8 9 -20 21 -26 23 -13 20 -36 -5 -32 -9
2 -16 -4 -16 -11 0 -8 -7 -20 -15 -27 -8 -7 -15 -21 -15 -31 0 -10 -9 -23 -20
-29 -11 -6 -19 -17 -18 -25 2 -7 -1 -13 -7 -12 -11 2 -7 64 6 89 5 9 9 28 9
42 0 16 6 26 15 26 19 0 20 26 0 34 -18 7 -45 -19 -45 -45 0 -10 -7 -19 -15
-19 -17 0 -18 4 -9 49 5 24 12 31 30 31 12 0 26 5 30 11 4 8 9 8 17 0 25 -25
37 -11 37 44 l0 56 -57 -3 c-57 -3 -58 -3 -61 -35 -2 -18 -8 -33 -14 -33 -6 0
-8 13 -6 30 3 20 0 30 -9 30 -7 0 -13 -5 -13 -12 0 -9 -3 -9 -11 -1 -6 6 -17
9 -24 7 -15 -6 -22 18 -21 75 l1 44 55 1 c60 1 55 -6 59 84 1 19 6 22 45 22
l44 0 7 -105z m651 75 c2 -76 -7 -70 109 -70 77 0 105 3 107 13 0 6 2 17 3 22
2 6 3 22 4 38 l1 27 105 0 105 0 0 -50 c0 -33 4 -50 13 -51 26 -3 87 -5 195
-7 l112 -2 0 -50 0 -50 55 0 55 0 0 50 0 50 55 0 55 0 -4 -102 -4 -103 -106
-3 c-81 -2 -106 0 -107 10 -1 7 0 30 1 51 l2 37 -51 0 -51 0 0 -50 0 -50 50 0
c55 0 58 -6 44 -79 -6 -31 -8 -32 -53 -29 l-46 3 -3 53 -3 52 -55 0 -56 0 3
43 c4 59 -4 68 -57 63 -42 -4 -44 -3 -45 22 -4 84 3 76 -79 85 -41 4 -88 6
-105 5 -29 -3 -30 -5 -35 -58 -4 -48 -8 -55 -25 -52 -11 1 -57 -1 -102 -4
l-83 -6 0 -49 c0 -26 5 -51 10 -54 6 -3 10 -12 10 -18 0 -7 -5 -4 -11 6 -9 15
-28 17 -169 17 l-160 0 0 -54 c0 -43 4 -55 18 -58 17 -4 238 -1 277 4 17 3 20
-3 23 -37 4 -70 10 -84 32 -78 18 5 20 0 20 -36 0 -22 -4 -41 -10 -41 -5 0
-10 6 -11 13 0 10 -2 10 -6 0 -10 -27 -23 -11 -23 27 l0 40 -54 0 c-62 0 -77
-19 -43 -57 20 -23 16 -43 -9 -43 -13 0 -16 9 -18 64 -1 11 -7 21 -14 24 -6 2
-12 10 -12 18 0 8 -6 14 -13 14 -7 0 -23 9 -35 20 -17 16 -22 17 -22 6 0 -25
12 -46 26 -46 9 0 14 -12 14 -35 0 -25 4 -35 16 -35 31 0 10 -35 -24 -38 -28
-3 -32 -7 -32 -31 0 -15 -3 -30 -6 -34 -10 -9 -34 4 -34 19 0 8 -6 11 -15 8
-9 -4 -15 0 -15 10 0 9 -7 16 -15 16 -8 0 -15 3 -15 8 0 4 21 7 48 8 l47 0 0
54 0 55 -47 3 c-46 3 -48 2 -49 -25 -1 -15 -1 -35 0 -45 3 -22 -18 -33 -25
-14 -3 9 -16 16 -28 16 -21 0 -49 24 -58 50 -2 8 -22 14 -49 14 -24 1 -70 3
-101 4 l-58 2 0 38 c0 24 3 32 9 24 6 -10 10 -7 15 13 5 19 13 26 29 25 44 -4
47 -1 47 43 0 23 4 47 8 53 4 7 47 12 106 12 55 1 101 4 104 7 3 3 4 39 3 81
-2 50 2 81 11 92 11 13 11 14 -1 8 -9 -6 -12 -4 -9 5 3 10 30 15 107 17 l103
3 -3 -48 -3 -48 52 -3 52 -3 0 55 0 56 -45 0 -45 0 0 49 0 49 48 -2 c43 -1 47
-3 48 -26z m1014 -15 c0 -32 4 -43 13 -39 8 3 11 18 9 44 -4 35 -2 40 17 40
18 0 21 -6 21 -40 0 -22 -5 -40 -11 -40 -5 0 -8 -4 -5 -9 3 -5 -12 -9 -34 -9
l-40 -1 3 50 c3 64 27 68 27 4z m279 -3 c-2 -26 -6 -49 -10 -52 -5 -3 -26 -4
-49 -2 l-40 4 0 48 0 48 51 0 50 1 -2 -47z m-2242 16 c-3 -8 -6 -5 -6 6 -1 11
2 17 5 13 3 -3 4 -12 1 -19z m1793 12 c0 -5 -2 -10 -4 -10 -3 0 -8 5 -11 10
-3 6 -1 10 4 10 6 0 11 -4 11 -10z m680 -40 c22 -22 27 -50 9 -50 -6 0 -13 9
-16 20 -3 11 -12 20 -19 20 -8 0 -14 7 -14 15 0 21 16 19 40 -5z m-2473 -32
c-3 -7 -5 -2 -5 12 0 14 2 19 5 13 2 -7 2 -19 0 -25z m1803 25 c0 -5 -5 -15
-10 -23 -8 -12 -10 -11 -10 8 0 12 5 22 10 22 6 0 10 -3 10 -7z m-3452 -24
c14 -22 10 -35 -7 -24 -6 3 -9 11 -6 16 4 5 1 9 -4 9 -6 0 -11 5 -11 10 0 17
14 11 28 -11z m-364 -5 c23 -9 20 -23 -4 -17 -11 3 -20 9 -20 14 0 11 3 11 24
3z m1852 -24 c13 0 24 -4 24 -9 0 -5 -15 -8 -32 -7 -27 1 -34 -3 -36 -21 -3
-23 7 -28 52 -23 10 1 16 -4 14 -10 -2 -7 -23 -14 -46 -15 l-42 -3 4 47 c3 25
5 48 5 50 1 2 8 0 17 -3 9 -3 27 -6 40 -6z m2280 -4 c1 -1 4 -18 7 -38 l6 -38
-50 0 c-46 0 -49 2 -49 25 0 28 17 34 22 9 2 -10 15 -18 31 -20 24 -2 27 1 27
27 0 28 -3 30 -32 29 -45 -3 -50 -1 -43 9 4 7 74 4 81 -3z m-4046 -10 c0 -3
-4 -8 -10 -11 -5 -3 -10 -1 -10 4 0 6 5 11 10 11 6 0 10 -2 10 -4z m-300 -41
c0 -10 11 -15 35 -15 24 0 35 5 35 15 0 9 9 15 25 15 16 0 25 -6 25 -15 0 -10
10 -15 30 -15 18 0 33 6 36 15 4 8 17 15 30 15 15 0 24 -6 24 -15 0 -11 12
-15 45 -15 33 0 45 4 45 15 0 10 10 15 30 15 20 0 30 -5 30 -15 0 -10 10 -15
30 -15 20 0 30 5 30 15 0 9 9 15 25 15 14 0 28 -7 31 -15 4 -8 12 -15 20 -15
8 0 14 7 14 15 0 9 9 15 24 15 13 0 26 -7 30 -15 4 -10 20 -15 51 -15 33 0 45
4 45 15 0 11 11 15 40 15 29 0 40 -4 40 -15 0 -11 12 -15 45 -15 33 0 45 -4
45 -15 0 -8 7 -15 15 -15 10 0 15 -10 15 -30 0 -20 5 -30 15 -30 8 0 15 -7 15
-15 0 -8 7 -15 15 -15 9 0 15 -9 15 -25 0 -16 -6 -25 -15 -25 -8 0 -15 -9 -15
-20 0 -11 7 -20 15 -20 11 0 15 -12 15 -45 0 -33 4 -45 15 -45 10 0 15 -10 15
-30 0 -16 5 -30 10 -30 13 0 50 -37 50 -50 0 -5 11 -10 25 -10 25 0 65 -31 65
-50 0 -16 28 -11 39 7 8 15 12 14 37 -15 16 -18 38 -32 50 -32 12 0 24 -7 28
-15 8 -22 44 -18 57 7 l12 22 15 -22 c17 -25 62 -30 62 -7 0 11 12 15 45 15
33 0 45 4 45 15 0 8 7 15 15 15 8 0 15 7 15 15 0 11 11 15 40 15 27 0 43 5 46
15 8 20 44 19 60 -2 13 -17 15 -17 28 0 16 21 52 22 60 2 3 -8 17 -15 31 -15
14 0 28 7 31 15 4 10 20 15 45 15 28 0 39 -4 39 -15 0 -8 7 -15 15 -15 9 0 18
7 21 15 4 8 15 15 25 15 20 0 59 -33 59 -50 0 -5 13 -10 29 -10 21 0 32 6 36
21 7 20 7 19 31 -6 13 -14 24 -30 24 -36 0 -5 7 -9 15 -9 8 0 15 7 15 15 0 12
13 15 60 15 47 0 60 3 60 15 0 10 10 15 30 15 20 0 30 5 30 15 0 11 11 15 39
15 25 0 41 -5 45 -15 3 -8 17 -15 31 -15 14 0 28 7 31 15 4 8 16 15 29 15 13
0 25 -7 29 -15 8 -21 53 -19 65 3 9 16 11 16 25 -3 15 -19 17 -19 30 -2 16 21
52 22 60 2 3 -8 15 -15 26 -15 12 0 46 -25 80 -60 64 -64 95 -75 110 -37 l9
22 7 -22 c7 -27 31 -31 36 -6 2 14 13 16 61 14 35 -1 57 2 57 8 0 20 40 51 65
51 16 0 25 6 25 15 0 11 12 15 45 15 33 0 45 4 45 15 0 20 46 20 54 -1 4 -10
14 -14 26 -11 13 3 24 -1 30 -14 14 -26 36 -24 44 4 6 17 9 19 14 7 14 -29 47
-60 65 -60 10 0 32 -15 48 -32 28 -31 31 -32 43 -15 7 9 23 17 35 17 12 0 24
7 27 15 4 8 17 15 30 15 14 0 27 7 30 15 4 8 17 15 30 15 14 0 27 7 30 15 4 8
17 15 30 15 14 0 27 7 30 15 4 8 17 15 30 15 15 0 24 -6 24 -15 0 -8 7 -15 15
-15 8 0 15 7 15 15 0 8 5 15 10 15 13 0 50 -37 50 -50 0 -5 14 -10 30 -10 17
0 30 5 30 10 0 39 100 70 114 35 3 -8 12 -15 21 -15 8 0 15 7 15 15 0 32 41
12 104 -49 36 -36 66 -71 66 -80 0 -8 18 -33 40 -56 l40 -42 40 40 c42 42 50
62 25 62 -8 0 -15 7 -15 15 0 8 -7 15 -15 15 -10 0 -15 10 -15 30 0 20 -5 30
-15 30 -10 0 -15 10 -15 30 0 20 -5 30 -15 30 -8 0 -15 4 -15 9 0 5 7 11 15
15 8 3 15 12 15 21 0 8 -7 15 -15 15 -26 0 -16 38 20 75 20 19 44 35 53 35 10
0 29 13 42 30 28 33 40 37 40 15 0 -8 7 -15 15 -15 9 0 18 7 21 15 4 8 17 15
30 15 14 0 27 7 30 15 4 8 17 15 30 15 15 0 24 -6 24 -15 0 -8 7 -15 15 -15 8
0 15 -7 15 -15 0 -8 6 -15 14 -15 8 0 16 7 20 15 3 8 10 15 16 15 5 0 10 -7
10 -15 0 -8 7 -15 15 -15 10 0 15 -10 15 -30 0 -20 5 -30 15 -30 10 0 15 -10
15 -30 0 -20 5 -30 15 -30 11 0 15 -11 15 -40 0 -34 -3 -40 -21 -40 -18 0 -20
-4 -14 -30 5 -23 3 -30 -9 -30 -11 0 -16 -9 -16 -30 0 -21 -5 -30 -16 -30 -25
0 -12 -35 14 -38 49 -7 83 -64 47 -78 -24 -10 -19 -78 7 -107 l22 -25 23 24
c14 16 23 38 23 58 0 21 6 36 15 40 8 3 15 14 15 25 0 21 91 121 109 121 6 0
11 7 11 15 0 10 10 15 30 15 17 0 30 5 30 10 0 17 39 50 59 50 10 0 21 -7 25
-15 3 -8 17 -15 31 -15 14 0 28 7 31 15 4 8 16 15 29 15 13 0 25 -7 29 -15 3
-8 16 -15 28 -15 13 -1 34 -14 48 -30 13 -17 32 -30 41 -30 25 0 89 -64 89
-89 0 -12 7 -24 15 -27 8 -4 15 -16 15 -29 0 -13 7 -25 15 -29 10 -3 15 -19
15 -45 0 -25 5 -41 15 -45 8 -3 15 -16 15 -30 0 -13 7 -26 15 -30 21 -8 21
-86 0 -86 -10 0 -15 -10 -15 -29 0 -16 6 -31 15 -35 8 -3 15 -15 15 -26 0 -11
-7 -23 -15 -26 -8 -4 -15 -12 -15 -20 0 -8 7 -14 15 -14 8 0 15 -5 15 -10 0
-6 -7 -13 -15 -16 -20 -8 -20 -64 0 -64 9 0 15 -9 15 -24 0 -13 -7 -26 -15
-30 -20 -7 -20 -66 0 -66 9 0 15 -9 15 -25 0 -16 -6 -25 -15 -25 -10 0 -15
-11 -15 -35 0 -24 5 -35 15 -35 8 0 15 -4 15 -10 0 -5 -7 -10 -15 -10 -11 0
-15 -12 -15 -45 0 -43 -1 -45 -30 -45 -20 0 -30 -5 -30 -15 0 -9 -9 -15 -25
-15 -13 0 -29 -8 -35 -17 -10 -17 -10 -17 -20 0 -13 21 -40 23 -40 2 0 -26
-43 -16 -70 15 -13 17 -34 30 -46 30 -12 0 -24 7 -28 15 -3 8 -17 15 -31 15
-21 0 -25 5 -25 30 0 27 -3 30 -30 30 -17 0 -33 -7 -39 -17 -9 -17 -11 -17
-25 2 -15 19 -17 19 -30 2 -14 -18 -15 -18 -35 2 -12 12 -21 26 -21 31 0 16
-27 12 -34 -5 -3 -8 -10 -15 -16 -15 -5 0 -10 7 -10 15 0 8 -7 15 -15 15 -8 0
-15 -7 -15 -15 0 -10 -10 -15 -30 -15 -20 0 -30 -5 -30 -15 0 -8 -7 -15 -15
-15 -8 0 -15 7 -15 15 0 22 -27 18 -33 -4 -3 -14 -11 -17 -31 -14 -19 4 -26 1
-26 -11 0 -21 -48 -22 -56 -1 -7 17 -64 21 -64 5 0 -27 -41 -50 -87 -50 -41 1
-52 5 -73 30 -13 17 -33 30 -45 30 -11 1 -31 14 -45 30 -13 17 -33 30 -45 30
-12 0 -32 -13 -45 -30 -27 -31 -64 -39 -74 -15 -3 8 -16 15 -30 15 -13 0 -26
-7 -30 -15 -3 -10 -19 -15 -46 -15 -29 0 -40 4 -40 15 0 10 -10 15 -30 15 -20
0 -30 -5 -30 -15 0 -8 -7 -15 -15 -15 -8 0 -15 7 -15 15 0 8 -7 15 -15 15 -8
0 -15 -7 -15 -15 0 -11 -12 -15 -45 -15 -33 0 -45 -4 -45 -15 0 -8 -7 -15 -15
-15 -8 0 -15 -7 -15 -15 0 -8 -7 -15 -15 -15 -8 0 -15 7 -15 15 0 11 -11 15
-39 15 -25 0 -41 5 -45 15 -3 8 -12 15 -21 15 -8 0 -15 -7 -15 -15 0 -8 -5
-15 -10 -15 -6 0 -13 7 -16 15 -7 17 -34 21 -34 5 0 -17 -39 -50 -60 -50 -11
0 -23 -7 -26 -15 -4 -9 -19 -15 -35 -15 -19 0 -29 -5 -29 -15 0 -9 -9 -15 -24
-15 -13 0 -26 7 -30 15 -3 10 -19 15 -46 15 -29 0 -40 4 -40 15 0 10 -10 15
-29 15 -17 0 -31 6 -35 16 -4 11 -16 15 -39 13 -32 -3 -77 27 -77 51 0 6 -13
10 -30 10 -20 0 -30 -5 -30 -15 0 -10 -10 -15 -30 -15 -20 0 -30 5 -30 15 0 8
-7 15 -15 15 -8 0 -15 7 -15 15 0 10 -10 15 -30 15 -20 0 -30 -5 -30 -15 0 -8
-7 -15 -15 -15 -8 0 -15 7 -15 15 0 8 -7 15 -15 15 -8 0 -15 7 -15 15 0 10
-10 15 -30 15 -20 0 -30 -5 -30 -15 0 -9 -9 -15 -25 -15 -13 0 -28 -7 -33 -16
-12 -22 -102 -21 -114 1 -11 19 -57 20 -64 0 -8 -20 -44 -19 -60 3 -13 16 -15
16 -28 0 -7 -10 -23 -18 -35 -18 -12 0 -24 -7 -27 -15 -4 -10 -20 -15 -45 -15
-26 0 -42 -5 -45 -15 -8 -20 -54 -20 -54 0 0 19 -56 20 -67 1 -4 -7 -23 -15
-42 -18 -27 -4 -35 -1 -39 14 -2 11 -13 18 -28 18 -24 0 -64 31 -64 50 0 6 -7
10 -15 10 -8 0 -15 -7 -15 -15 0 -26 -44 -17 -70 15 -28 33 -64 39 -79 13 -10
-17 -12 -17 -25 0 -16 21 -55 22 -62 2 -4 -8 -17 -15 -30 -15 -14 0 -27 -7
-30 -15 -4 -8 -16 -15 -28 -15 -12 0 -33 -13 -46 -30 -19 -22 -33 -29 -62 -30
-27 0 -38 4 -38 15 0 10 -11 15 -35 15 -24 0 -35 -5 -35 -15 0 -9 -9 -15 -25
-15 -16 0 -25 6 -25 15 0 8 -7 15 -15 15 -9 0 -18 -7 -21 -15 -4 -8 -17 -15
-30 -15 -15 0 -24 6 -24 15 0 8 -7 15 -15 15 -8 0 -15 7 -15 15 0 10 -10 15
-30 15 -20 0 -30 -5 -30 -15 0 -10 -10 -15 -30 -15 -20 0 -30 5 -30 15 0 8 -7
15 -15 15 -8 0 -15 -7 -15 -15 0 -10 -10 -15 -30 -15 -20 0 -30 -5 -30 -15 0
-11 -12 -15 -45 -15 -33 0 -45 -4 -45 -15 0 -9 -9 -15 -25 -15 -14 0 -28 7
-31 15 -4 9 -19 15 -35 15 -19 0 -29 -5 -29 -15 0 -9 -9 -15 -24 -15 -13 0
-26 7 -30 15 -3 8 -15 15 -27 15 -12 0 -28 8 -35 18 -13 16 -15 16 -28 -1 -14
-18 -17 -16 -59 27 -24 25 -52 46 -62 46 -10 0 -24 8 -31 18 -13 16 -15 16
-28 0 -16 -22 -56 -24 -56 -3 0 8 -7 15 -15 15 -9 0 -18 -7 -21 -15 -4 -8 -14
-15 -24 -15 -18 0 -90 -65 -90 -81 0 -5 -13 -9 -30 -9 -20 0 -30 -5 -30 -15 0
-8 -7 -15 -15 -15 -8 0 -15 7 -15 15 0 8 -7 15 -15 15 -8 0 -15 -7 -15 -15 0
-11 -12 -15 -45 -15 -33 0 -45 -4 -45 -15 0 -8 -7 -15 -15 -15 -8 0 -15 7 -15
15 0 10 -10 15 -30 15 -20 0 -30 -5 -30 -15 0 -19 -16 -20 -23 -1 -4 9 -23 16
-47 18 -41 3 -57 23 -19 23 12 0 27 11 34 25 l13 24 13 -22 c15 -24 59 -30 59
-8 0 23 49 26 61 5 12 -23 47 -25 55 -4 4 8 12 15 19 15 7 0 16 10 19 23 6 22
7 22 22 -6 14 -26 34 -29 34 -6 0 13 63 75 81 81 10 3 7 8 -9 17 -27 14 -30
56 -4 70 14 8 18 18 14 43 -3 18 -11 37 -18 41 -20 11 -17 45 4 58 21 13 18
79 -4 92 -20 12 -17 45 6 59 13 8 18 19 14 34 -4 14 0 23 10 27 22 9 20 44 -3
57 -21 11 -19 41 5 61 19 16 18 78 -1 85 -10 4 -15 20 -15 45 0 29 5 41 22 50
21 12 21 12 -7 27 l-29 15 27 13 c29 16 27 39 -5 62 -14 10 -16 17 -8 27 8 10
7 14 -2 18 -7 3 -3 4 9 4 12 -1 19 -5 17 -9 -3 -4 0 -8 5 -8 6 0 11 -7 11 -15
0 -23 15 -18 30 10 9 17 16 21 21 14 4 -7 17 -9 34 -5 22 6 28 3 32 -14 3 -13
14 -20 29 -20 13 0 24 4 24 8 0 5 27 35 60 68 33 32 60 65 60 72 0 8 -9 21
-19 30 -15 13 -17 22 -11 40 5 12 14 22 20 22 18 0 11 18 -10 25 -11 3 -20 10
-20 15 0 5 9 12 20 15 25 8 26 22 2 29 -23 8 -22 44 1 61 16 11 14 16 -19 49
-41 41 -69 46 -80 14 l-7 -22 -17 22 c-22 27 -26 27 -33 2 -6 -24 -43 -22 -62
3 -16 22 -22 21 -28 -3 -3 -12 -14 -20 -26 -20 -11 0 -26 9 -33 20 -7 11 -18
20 -25 20 -15 0 -73 -58 -73 -74 -1 -6 -8 1 -16 17 -8 15 -19 27 -24 27 -6 0
-10 7 -10 15 0 22 -43 19 -57 -4 -14 -22 -52 -21 -65 3 -6 10 -20 2 -58 -36
-28 -28 -50 -51 -48 -53 2 -1 14 -8 27 -15 l24 -12 -31 -14 c-33 -13 -41 -29
-20 -36 7 -3 5 -7 -6 -11 -10 -4 -15 -3 -11 3 3 6 -1 10 -9 10 -9 0 -16 7 -16
15 0 8 -7 15 -15 15 -9 0 -15 9 -15 22 0 12 -19 39 -45 65 -25 23 -45 47 -45
52 0 5 -17 9 -38 9 -31 1 -41 -5 -57 -29 -11 -16 -26 -29 -32 -29 -7 0 -13 -7
-13 -15 0 -8 -7 -15 -15 -15 -19 0 -20 -39 -1 -54 8 -6 17 -21 20 -33 5 -16 2
-23 -14 -28 -27 -9 -27 -51 0 -58 19 -5 29 -27 11 -27 -4 0 -20 -11 -35 -25
-29 -27 -36 -82 -11 -91 8 -4 15 -12 15 -20 0 -8 5 -14 10 -14 13 0 50 -37 50
-51 0 -5 4 -8 9 -4 5 3 12 -4 16 -15 9 -28 16 -25 45 16 l24 36 17 -21 c20
-24 59 -28 59 -6 0 8 5 15 10 15 6 0 16 12 22 26 11 24 13 25 25 8 18 -24 16
-63 -2 -70 -24 -9 -18 -42 11 -57 l25 -13 -26 -14 c-18 -9 -25 -20 -22 -32 3
-11 -2 -22 -14 -28 -20 -11 -26 -30 -10 -30 6 0 21 -11 35 -23 l26 -24 -35
-29 c-37 -30 -45 -61 -20 -70 8 -4 15 -17 15 -30 0 -13 9 -28 21 -34 20 -11
20 -13 -15 -44 -38 -33 -46 -60 -21 -70 9 -3 15 -18 15 -36 0 -20 -5 -30 -15
-30 -12 0 -15 -13 -15 -60 0 -47 -3 -60 -15 -60 -9 0 -15 -9 -15 -24 0 -13 7
-26 15 -30 8 -3 15 -17 15 -31 0 -14 -7 -28 -15 -31 -10 -4 -15 -19 -15 -43 1
-27 8 -42 30 -61 17 -13 30 -28 30 -32 0 -14 -28 -8 -34 7 -3 8 -17 15 -31 15
-24 0 -25 3 -25 55 0 42 3 55 15 55 10 0 15 10 15 30 0 18 -6 33 -15 36 -10 4
-15 20 -15 45 0 26 -5 42 -15 45 -20 8 -20 54 0 54 8 0 15 6 15 14 0 8 -7 16
-15 20 -8 3 -15 10 -15 16 0 5 7 10 15 10 8 0 15 6 15 14 0 8 -7 16 -15 20 -8
3 -15 16 -15 30 0 13 -7 26 -15 30 -20 7 -20 56 0 56 8 0 15 7 15 15 0 8 -7
15 -15 15 -8 0 -15 7 -15 15 0 8 7 15 15 15 8 0 15 7 15 15 0 8 -7 15 -15 15
-11 0 -15 12 -15 45 0 33 -4 45 -15 45 -19 0 -19 19 0 26 19 8 19 34 0 34 -10
0 -15 10 -15 30 0 20 -5 30 -15 30 -8 0 -15 7 -15 15 0 8 -7 15 -15 15 -8 0
-15 7 -15 15 0 8 -7 15 -15 15 -10 0 -15 10 -15 30 0 20 -5 30 -15 30 -10 0
-15 10 -15 30 0 20 -5 30 -15 30 -12 0 -15 13 -15 55 0 42 3 55 15 55 10 0 15
11 15 35 0 24 -5 35 -15 35 -9 0 -15 9 -15 25 0 16 6 25 15 25 8 0 15 9 15 20
0 11 -7 20 -15 20 -9 0 -15 9 -15 25 0 16 6 25 15 25 10 0 15 10 15 30 0 20 5
30 15 30 8 0 15 7 15 15 0 8 7 15 15 15 8 0 15 7 15 15 0 11 12 15 45 15 33 0
45 4 45 15 0 9 9 15 25 15 16 0 25 -6 25 -15z m4750 -1 c0 -17 -22 -14 -28 4
-2 7 3 12 12 12 9 0 16 -7 16 -16z m-80 -9 c0 -8 -4 -15 -10 -15 -5 0 -7 7 -4
15 4 8 8 15 10 15 2 0 4 -7 4 -15z m-2470 -84 l0 -46 -47 0 -46 1 1 42 c0 23
1 44 1 47 1 2 21 4 46 3 l45 -1 0 -46z m1400 0 c0 -27 5 -51 11 -53 8 -3 9
-35 4 -111 l-7 -107 -54 0 c-54 0 -54 0 -54 -31 0 -24 -4 -30 -15 -25 -10 3
-15 -1 -15 -12 0 -10 -3 -13 -8 -6 -4 6 -15 13 -25 17 -10 4 -15 11 -12 17 4
6 11 7 17 4 7 -4 8 -2 4 5 -10 15 11 41 33 41 14 0 16 16 18 104 l3 104 -39 4
c-57 5 -61 1 -61 -49 0 -36 -4 -46 -20 -50 -10 -3 -22 -14 -25 -24 -7 -22 -25
-26 -25 -5 0 8 -11 37 -25 64 -14 28 -25 53 -25 56 0 3 27 6 60 6 l60 0 0 50
0 50 100 0 100 0 0 -49z m307 13 c-3 -3 -12 -4 -19 -1 -8 3 -5 6 6 6 11 1 17
-2 13 -5z m-1497 -45 c0 -5 -21 -9 -46 -9 -25 0 -43 4 -40 8 7 11 86 13 86 1z
m-760 -51 c0 -18 -33 -21 -45 -5 -7 10 -17 17 -24 17 -14 0 -14 13 0 27 9 9
19 6 40 -10 16 -11 29 -25 29 -29z m1620 37 c0 -8 -9 -15 -20 -15 -20 0 -26
11 -13 23 12 13 33 7 33 -8z m-960 -116 l0 -99 -49 0 -49 0 -1 89 c-1 49 1 95
4 102 4 10 19 13 50 11 l45 -4 0 -99z m1927 41 c1 -36 -1 -57 -4 -47 -4 14
-12 16 -44 11 l-39 -7 0 51 c0 54 3 57 53 57 l32 0 2 -65z m-577 39 c0 -5 -4
-9 -10 -9 -5 0 -10 7 -10 16 0 8 5 12 10 9 6 -3 10 -10 10 -16z m316 -7 c-22
-5 -30 3 -21 18 5 8 11 7 22 -2 15 -12 14 -13 -1 -16z m-269 -8 c-2 -2 -12 -1
-22 3 -18 6 -18 7 1 13 17 7 33 -5 21 -16z m-3259 -29 c0 -21 -5 -25 -29 -25
-24 0 -29 4 -29 25 0 21 5 25 29 25 24 0 29 -4 29 -25z m542 15 c0 -5 -2 -10
-4 -10 -3 0 -8 5 -11 10 -3 6 -1 10 4 10 6 0 11 -4 11 -10z m2670 -7 c0 -14
-19 -38 -25 -32 -8 8 5 39 16 39 5 0 9 -3 9 -7z m50 0 c-1 -19 -19 -35 -36
-30 -17 4 -17 6 3 12 13 4 20 11 17 16 -3 5 0 9 5 9 6 0 11 -3 11 -7z m-3625
-12 c3 -5 1 -12 -5 -16 -5 -3 -10 1 -10 9 0 18 6 21 15 7z m3125 -13 c0 -4 -4
-8 -9 -8 -6 0 -12 4 -15 8 -3 5 1 9 9 9 8 0 15 -4 15 -9z m-1540 -18 c11 -11
16 -20 11 -20 -5 0 -16 -3 -25 -6 -12 -5 -16 0 -16 20 0 31 4 32 30 6z m1580
1 c0 -21 27 -36 33 -18 8 25 16 -50 8 -83 l-8 -35 -7 43 c-5 26 -13 42 -22 42
-8 0 -14 7 -14 15 0 8 -9 15 -20 15 -23 0 -26 10 -8 28 18 18 38 14 38 -7z
m-1282 -9 c2 -7 -6 -12 -17 -12 -21 0 -27 11 -14 24 9 9 26 2 31 -12z m438 7
c8 -14 -11 -33 -25 -25 -11 7 -4 36 9 36 5 0 12 -5 16 -11z m-1691 -24 c0 -21
-5 -25 -27 -25 -23 0 -28 4 -28 25 0 21 5 25 28 25 22 0 27 -4 27 -25z m625
-21 c0 -24 -4 -34 -12 -31 -7 2 -12 14 -11 26 2 13 -4 24 -14 28 -15 6 -14 7
3 13 27 11 34 3 34 -36z m2698 -6 l-3 -53 -50 0 c-49 0 -50 1 -53 32 -4 45 23
73 71 73 l38 0 -3 -52z m-590 30 c18 -18 14 -38 -8 -38 -15 0 -20 7 -20 25 0
27 9 32 28 13z m362 -34 c0 -34 -4 -44 -16 -44 -11 0 -14 5 -9 18 8 20 8 22 6
42 -1 13 -2 13 -11 0 -8 -13 -10 -13 -10 2 0 9 -10 18 -22 21 -13 2 -4 4 20 4
l42 1 0 -44z m-1932 19 c2 -8 -5 -13 -17 -13 -12 0 -21 6 -21 16 0 18 31 15
38 -3z m2012 -3 c0 -11 -7 -20 -15 -20 -15 0 -21 21 -8 33 12 13 23 7 23 -13z
m438 5 c4 -4 -35 -45 -42 -45 -7 0 -15 43 -10 52 5 7 41 2 52 -7z m-947 -8
c-1 -4 -1 -20 -1 -37 0 -20 -5 -30 -15 -30 -8 0 -14 -5 -12 -11 1 -6 -3 -13
-9 -16 -15 -5 -5 89 10 99 13 9 28 6 27 -5z m829 -3 c0 -8 -4 -12 -10 -9 -5 3
-10 10 -10 16 0 5 5 9 10 9 6 0 10 -7 10 -16z m-440 -44 c0 -17 -37 -11 -42 8
-9 32 2 42 23 21 10 -10 19 -23 19 -29z m404 41 c4 -5 0 -12 -6 -14 -10 -4 -9
-8 2 -16 8 -5 11 -13 7 -17 -10 -11 -19 2 -22 31 -3 25 8 34 19 16z m-2280
-36 c-4 -8 -8 -15 -10 -15 -2 0 -4 7 -4 15 0 8 4 15 10 15 5 0 7 -7 4 -15z
m-1801 -24 c6 -25 0 -31 -30 -31 -18 0 -23 5 -23 25 0 20 5 25 24 25 15 0 26
-7 29 -19z m1217 9 c0 -5 -4 -10 -10 -10 -5 0 -10 5 -10 10 0 6 5 10 10 10 6
0 10 -4 10 -10z m-890 -46 c0 -20 -5 -24 -30 -24 -22 0 -30 5 -30 18 0 25 18
41 41 35 12 -3 19 -14 19 -29z m1236 9 c-10 -10 -19 5 -10 18 6 11 8 11 12 0
2 -7 1 -15 -2 -18z m244 6 c0 -5 -4 -9 -10 -9 -5 0 -10 7 -10 16 0 8 5 12 10
9 6 -3 10 -10 10 -16z m260 9 c0 -9 3 -8 10 2 8 13 11 13 26 -2 17 -16 16 -18
-7 -27 -18 -7 -20 -10 -6 -10 13 -1 17 -7 15 -23 -2 -13 -7 -21 -13 -18 -5 3
-9 12 -8 20 2 10 0 10 -3 3 -8 -18 -21 -16 -28 3 -3 8 -2 12 4 9 6 -3 10 -2
10 4 0 17 -20 23 -36 10 -13 -10 -17 -10 -24 1 -4 7 -6 19 -3 27 7 17 63 17
63 1z m195 2 c-4 -6 -1 -17 5 -25 10 -13 8 -15 -14 -15 -19 0 -26 5 -26 18 0
22 8 32 27 32 8 0 11 -5 8 -10z m45 -5 c0 -8 -7 -15 -15 -15 -8 0 -15 7 -15
15 0 8 7 15 15 15 8 0 15 -7 15 -15z m1466 -11 c9 4 14 -2 14 -16 0 -17 -3
-19 -12 -10 -7 7 -16 8 -23 2 -8 -6 -10 -1 -9 18 2 36 5 41 11 19 3 -11 11
-16 19 -13z m344 11 c0 -8 -4 -15 -10 -15 -5 0 -10 7 -10 15 0 8 5 15 10 15 6
0 10 -7 10 -15z m1100 -1 c0 -8 -4 -12 -10 -9 -5 3 -10 10 -10 16 0 5 5 9 10
9 6 0 10 -7 10 -16z m-3970 -45 c0 -21 -4 -39 -9 -39 -5 0 -18 -3 -28 -6 -10
-3 -14 -2 -8 3 13 10 16 43 4 43 -5 0 -9 5 -9 10 0 6 7 10 15 10 8 0 15 7 15
16 0 8 5 12 10 9 6 -3 10 -24 10 -46z m1150 19 c0 -12 -3 -18 -7 -14 -10 10
-11 46 -1 40 4 -3 8 -15 8 -26z m1640 18 c0 -2 -9 -6 -20 -9 -11 -3 -20 -1
-20 4 0 5 9 9 20 9 11 0 20 -2 20 -4z m-836 -27 c-3 -5 -10 -7 -15 -3 -5 3 -7
10 -3 15 3 5 10 7 15 3 5 -3 7 -10 3 -15z m783 6 c0 -8 -5 -11 -10 -8 -6 4 -8
0 -4 -10 3 -10 2 -17 -3 -17 -6 0 -10 11 -10 25 0 14 6 25 13 25 8 0 14 -7 14
-15z m-3751 -77 c-2 -17 -10 -23 -27 -23 -18 0 -24 6 -25 23 -1 18 4 22 27 22
24 0 28 -4 25 -22z m2844 12 c0 -12 -46 -33 -72 -34 -31 0 -35 8 -16 28 12 13
88 18 88 6z m538 -13 c3 -13 -4 -17 -32 -17 -29 0 -34 -3 -29 -17 6 -16 4 -16
-15 1 -40 35 -28 52 37 51 26 0 37 -5 39 -18z m-2403 -6 c3 -5 1 -12 -5 -16
-5 -3 -10 1 -10 9 0 18 6 21 15 7z m-915 -131 c0 -11 -7 -20 -15 -20 -8 0 -15
9 -15 20 0 11 7 20 15 20 8 0 15 -9 15 -20z m-20 -35 c9 -10 9 -15 1 -15 -6 0
-11 -4 -11 -10 0 -5 7 -10 15 -10 8 0 15 5 15 10 0 6 5 10 10 10 6 0 10 -11
10 -25 0 -19 -5 -25 -17 -23 -25 4 -53 35 -53 58 0 24 13 26 30 5z m4607 -67
c-2 -13 -4 -5 -4 17 -1 22 1 32 4 23 2 -10 2 -28 0 -40z m-4647 -28 c0 -20 -5
-30 -15 -30 -10 0 -15 10 -15 30 0 20 5 30 15 30 10 0 15 -10 15 -30z m30 -90
c0 -24 -4 -30 -21 -30 -11 0 -18 4 -14 9 3 5 0 13 -6 17 -8 4 -9 -3 -5 -27 6
-30 5 -32 -7 -16 -8 9 -19 17 -26 17 -6 0 -11 7 -11 15 0 8 7 15 15 15 8 0 15
7 15 15 0 10 10 15 30 15 27 0 30 -3 30 -30z m-4 -93 c-2 -18 -16 -28 -16 -12
0 3 0 14 0 26 0 11 4 17 10 14 5 -3 8 -16 6 -28z m4 -73 c0 -8 -9 -14 -19 -14
-11 0 -22 -6 -24 -12 -3 -7 -6 -3 -6 9 -1 12 7 26 16 32 21 11 33 6 33 -15z
m-2 -99 c-1 -30 -5 -55 -10 -55 -4 0 -8 11 -8 24 0 13 -3 38 -6 55 -5 24 -3
31 9 31 12 0 15 -12 15 -55z m-118 -124 c0 -26 -3 -29 -27 -27 -16 2 -28 8
-27 15 1 6 2 18 3 26 0 9 11 15 26 15 21 0 25 -5 25 -29z m85 -52 c8 -24 2
-32 -26 -36 -21 -3 -35 18 -25 42 8 22 44 18 51 -6z m1019 -221 c18 -13 56 -9
62 6 6 16 44 29 44 15 0 -5 10 -19 23 -31 l22 -23 -22 -3 c-19 -3 -22 -10 -25
-55 l-3 -52 -47 -3 -48 -3 0 55 0 56 -49 0 c-43 0 -49 2 -44 18 3 14 11 18 28
14 17 -3 25 2 31 20 5 17 8 19 12 8 3 -8 10 -18 16 -22z m224 -37 c-15 -5 -19
4 -11 24 6 18 7 18 13 -1 4 -10 3 -21 -2 -23z m94 7 c-15 -15 -24 -6 -16 16 5
12 10 14 17 7 8 -8 8 -14 -1 -23z m538 -173 l0 -55 55 0 55 0 0 -55 0 -55 110
0 110 0 0 -265 0 -265 -104 0 -105 0 -3 53 -3 52 -107 3 -107 3 -3 52 -3 52
-42 0 c-23 0 -44 2 -47 5 -3 3 -6 73 -7 155 l-1 150 51 3 51 3 0 103 c0 56 3
106 7 109 3 4 26 7 50 7 l43 0 0 -55z m-440 -2 l-5 -48 -3 44 c-3 43 -3 43
-37 38 -19 -3 -37 -1 -40 4 -4 5 15 9 42 9 l48 0 -5 -47z m-68 -13 c3 -19 0
-30 -7 -30 -7 0 -10 11 -7 30 2 17 5 30 7 30 2 0 5 -13 7 -30z m-26 -161 c10
-16 -11 -32 -48 -36 -17 -2 -35 -8 -39 -14 -7 -12 -19 13 -19 42 0 16 7 19 49
19 28 0 53 -5 57 -11z m1534 -40 c0 -49 1 -50 28 -47 22 2 27 8 29 33 0 17 2
38 2 48 1 9 5 17 10 17 6 0 10 -289 11 -755 l0 -755 -32 1 c-78 3 -78 3 -78
-45 0 -53 10 -61 70 -61 l45 0 0 -48 0 -47 44 0 43 0 -4 45 c-2 25 0 45 4 45
5 0 8 -22 8 -49 0 -28 5 -53 10 -56 6 -4 10 -14 9 -23 -1 -10 -1 -32 0 -49 1
-31 2 -32 39 -29 l37 3 -1 46 c0 65 16 59 18 -5 1 -29 3 -66 4 -83 1 -16 3
-40 3 -52 1 -19 7 -22 53 -25 l51 -3 1 -50 1 -50 95 -2 c52 -1 101 -2 108 -2
8 -1 12 -19 12 -55 0 -34 -5 -56 -12 -59 -8 -3 -5 -6 6 -6 16 -1 16 -3 5 -17
-10 -12 -10 -20 -1 -34 8 -13 8 -21 1 -26 -6 -3 -9 -29 -8 -58 l3 -51 -43 0
c-23 0 -45 3 -48 8 -3 5 8 8 23 7 49 -3 54 -1 54 29 0 39 -9 61 -26 61 -8 0
-14 6 -14 13 0 9 -3 8 -9 -2 -5 -7 -14 -12 -22 -9 -14 5 -21 48 -7 48 5 0 7 4
3 9 -9 16 16 25 27 10 8 -12 9 -11 5 1 -2 11 -23 16 -77 20 l-74 5 -7 33 c-4
18 -5 41 -2 51 4 15 -8 18 -94 27 -54 6 -101 8 -106 4 -4 -3 -8 -52 -10 -108
l-2 -101 -50 -3 -50 -3 -3 -52 -3 -53 -105 0 -104 0 0 55 0 55 -55 0 -55 0 0
50 0 50 55 0 55 0 0 110 0 110 60 0 c43 0 58 3 55 12 -3 7 -7 54 -8 103 l-4
90 -51 3 -52 3 0 50 c0 27 -3 49 -7 50 -5 1 -28 2 -53 3 -45 1 -45 1 -48 40
-7 80 -5 81 108 79 l100 -2 0 28 c0 15 3 62 6 104 l7 77 -56 0 -56 0 -3 58 -3
57 -50 0 -50 0 3 105 c2 57 4 105 5 105 1 1 24 0 50 -3 l49 -4 -4 -47 -3 -46
60 0 60 0 -3 38 c-3 30 0 37 15 37 13 0 10 4 -11 15 -15 8 -48 15 -72 15 l-44
0 0 265 0 265 55 0 56 0 -2 53 c-3 72 -4 73 -53 69 l-44 -4 -7 97 c-4 53 -4
99 0 103 4 4 30 7 58 7 l52 0 0 53 c-1 28 3 52 7 52 4 0 8 -23 8 -51z m-1540
-13 c0 -3 -4 -8 -10 -11 -5 -3 -10 -1 -10 4 0 6 5 11 10 11 6 0 10 -2 10 -4z
m108 -41 c7 -3 12 -24 12 -60 0 -48 3 -55 20 -55 10 0 24 -8 30 -17 7 -13 10
-14 8 -3 -3 16 3 20 28 20 12 0 14 -9 12 -42 l-3 -43 -52 -3 -53 -3 0 -58 0
-58 -96 -2 c-53 0 -100 -4 -105 -7 -5 -3 -8 -22 -5 -43 6 -54 -3 -63 -60 -59
l-49 3 -3 53 -3 52 -55 0 -54 0 0 110 0 110 60 0 60 0 0 -58 0 -58 43 1 c23 1
47 4 53 7 10 7 11 95 0 105 -11 11 -6 111 6 115 14 5 189 -1 206 -7z m217
-269 l0 -48 -47 -2 -48 -2 0 54 0 53 48 -3 47 -3 0 -49z m1780 7 l0 -48 47 1
46 0 4 -43 3 -43 -92 0 -92 0 -3 90 -3 90 45 0 45 0 0 -47z m-195 -95 l0 -43
-45 0 -45 0 0 43 0 42 45 0 45 0 0 -42z m-1480 -21 l0 -53 -45 1 c-38 0 -45 3
-46 20 -1 11 -3 31 -4 45 -4 36 1 40 51 40 l44 0 0 -53z m-436 -22 c-4 -8 -10
-15 -15 -15 -4 0 -6 7 -3 15 4 8 10 15 15 15 4 0 6 -7 3 -15z m2012 -52 l1
-43 -43 0 -44 0 0 44 0 44 42 -2 42 -1 2 -42z m-1356 -34 l0 -50 -102 5 -103
5 0 45 0 46 103 0 102 0 0 -51z m-760 21 c0 -5 -2 -10 -4 -10 -3 0 -8 5 -11
10 -3 6 -1 10 4 10 6 0 11 -4 11 -10z m-4 -57 c-11 -11 -19 6 -11 24 8 17 8
17 12 0 3 -10 2 -21 -1 -24z m1111 5 c-3 -7 -5 -2 -5 12 0 14 2 19 5 13 2 -7
2 -19 0 -25z m-1157 0 c0 -4 -9 -8 -20 -8 -11 0 -20 4 -20 8 0 4 9 8 20 8 11
0 20 -4 20 -8z m525 -6 c-3 -3 -11 0 -18 7 -9 10 -8 11 6 5 10 -3 15 -9 12
-12z m1543 -30 l3 -42 -46 0 -45 0 2 45 1 44 41 -2 c40 -3 41 -3 44 -45z
m-1043 -92 l0 -105 -49 0 -49 0 -1 50 -1 50 -55 5 -55 5 -3 47 -3 47 83 3 c46
2 94 3 108 3 l25 0 0 -105z m1335 -6 l0 -45 -41 3 c-41 3 -42 3 -44 46 l-3 42
44 0 44 0 0 -46z m-870 -43 c0 -28 -4 -53 -10 -56 -6 -4 -10 15 -10 49 0 31 5
56 10 56 6 0 10 -22 10 -49z m910 -15 c0 -3 -4 -8 -10 -11 -5 -3 -10 -1 -10 4
0 6 5 11 10 11 6 0 10 -2 10 -4z m47 -18 c-3 -8 -6 -5 -6 6 -1 11 2 17 5 13 3
-3 4 -12 1 -19z m-52 -48 c3 -5 1 -10 -4 -10 -6 0 -11 5 -11 10 0 6 2 10 4 10
3 0 8 -4 11 -10z m60 0 c3 -5 1 -10 -4 -10 -6 0 -11 5 -11 10 0 6 2 10 4 10 3
0 8 -4 11 -10z m103 -72 c-3 -42 -3 -42 -43 -42 -40 0 -40 0 -43 42 l-3 42 46
0 46 0 -3 -42z m-1291 0 c-3 -8 -6 -5 -6 6 -1 11 2 17 5 13 3 -3 4 -12 1 -19z
m70 0 c-3 -8 -6 -5 -6 6 -1 11 2 17 5 13 3 -3 4 -12 1 -19z m-387 2 c0 -5 -2
-10 -4 -10 -3 0 -8 5 -11 10 -3 6 -1 10 4 10 6 0 11 -4 11 -10z m1740 -164 c0
-3 -4 -8 -10 -11 -5 -3 -10 -1 -10 4 0 6 5 11 10 11 6 0 10 -2 10 -4z m60 -6
c0 -5 -2 -10 -4 -10 -3 0 -8 5 -11 10 -3 6 -1 10 4 10 6 0 11 -4 11 -10z m0
-55 c0 -8 -7 -15 -15 -15 -13 0 -14 3 -3 15 16 18 18 18 18 0z m100 -45 c0 -5
-2 -10 -4 -10 -3 0 -8 5 -11 10 -3 6 -1 10 4 10 6 0 11 -4 11 -10z m0 -54 c0
-3 -4 -8 -10 -11 -5 -3 -10 -1 -10 4 0 6 5 11 10 11 6 0 10 -2 10 -4z m-1358
-63 c-2 -23 -7 -63 -12 -90 -7 -43 -8 -38 -9 45 -1 70 2 93 11 90 8 -3 11 -20
10 -45z m68 -9 c0 -28 -4 -44 -12 -44 -11 0 -14 30 -9 93 1 5 6 5 11 2 6 -3
10 -26 10 -51z m-38 9 c-5 -59 -10 -63 -11 -10 -1 26 3 47 7 47 4 0 6 -17 4
-37z m96 -102 c-1 -35 -2 -37 -19 -23 -17 15 -15 40 5 54 16 11 16 11 14 -31z
m32 -1 c0 -5 -2 -10 -4 -10 -3 0 -8 5 -11 10 -3 6 -1 10 4 10 6 0 11 -4 11
-10z m-520 -212 c0 -17 -3 -28 -7 -24 -4 4 -8 15 -8 24 0 12 -9 17 -30 17 -27
0 -30 -4 -33 -34 l-3 -34 40 6 c23 3 41 1 41 -4 0 -5 -20 -9 -45 -9 l-45 0 0
45 0 45 45 0 c44 0 45 -1 45 -32z m434 -178 l1 -95 -47 -3 -48 -3 0 103 0 104
47 -6 46 -5 1 -95z m389 93 c-7 -2 -19 -2 -25 0 -7 3 -2 5 12 5 14 0 19 -2 13
-5z m-678 -148 c0 -25 -4 -44 -9 -42 -9 3 -16 75 -8 90 8 17 16 -5 17 -48z
m68 25 c-3 -11 -7 -20 -8 -20 -1 0 -5 9 -8 20 -3 12 0 20 8 20 8 0 11 -8 8
-20z m1 -61 c-3 -5 -10 -7 -15 -3 -5 3 -7 10 -3 15 3 5 10 7 15 3 5 -3 7 -10
3 -15z m-392 -69 c-5 -61 -22 -56 -22 6 0 28 4 44 13 44 8 0 11 -15 9 -50z
m67 3 c-1 -53 -6 -49 -11 10 -2 20 0 37 4 37 4 0 8 -21 7 -47z m1046 -92 c3
-5 0 -13 -5 -16 -7 -5 -5 -12 7 -20 23 -17 17 -22 -27 -27 -34 -3 -35 -2 -31
27 1 17 5 33 8 38 6 10 41 9 48 -2z m577 -174 c2 -54 1 -101 -1 -103 -2 -2
-48 -4 -101 -4 l-97 0 -9 100 c-6 66 -6 102 1 104 6 3 54 4 107 3 l97 -2 3
-98z m-457 13 c-3 -5 -11 -10 -16 -10 -6 0 -7 5 -4 10 3 6 11 10 16 10 6 0 7
-4 4 -10z m-1165 -109 c0 -4 -20 -7 -45 -8 -25 0 -45 3 -45 8 0 5 20 8 45 7
25 0 45 -4 45 -7z m365 -1 c-3 -5 -10 -10 -16 -10 -5 0 -9 5 -9 10 0 6 7 10
16 10 8 0 12 -4 9 -10z m65 0 c0 -5 -4 -10 -9 -10 -6 0 -13 5 -16 10 -3 6 1
10 9 10 9 0 16 -4 16 -10z m-862 -31 c-5 -16 -198 -18 -198 -1 0 9 27 12 101
12 66 0 99 -4 97 -11z m330 -1 c-3 -8 -22 -13 -48 -13 -26 0 -45 5 -48 13 -2
8 12 12 48 12 36 0 50 -4 48 -12z m320 1 c-5 -16 -201 -15 -206 0 -2 7 32 11
103 11 76 0 106 -3 103 -11z m322 -1 c0 -9 -16 -13 -45 -13 -29 0 -45 4 -45
13 0 8 16 12 45 12 29 0 45 -4 45 -12z m540 0 c0 -17 -303 -15 -308 1 -3 8 46
11 152 11 118 0 156 -3 156 -12z m330 0 c0 -9 -17 -13 -50 -14 -35 0 -50 3
-50 13 0 9 15 13 50 13 33 0 50 -4 50 -12z m-2107 -105 c-7 -2 -19 -2 -25 0
-7 3 -2 5 12 5 14 0 19 -2 13 -5z m1314 1 c-3 -3 -12 -4 -19 -1 -8 3 -5 6 6 6
11 1 17 -2 13 -5z m101 -1 c-10 -2 -26 -2 -35 0 -10 3 -2 5 17 5 19 0 27 -2
18 -5z m2357 -143 c-3 -5 -12 -10 -18 -10 -7 0 -6 4 3 10 19 12 23 12 15 0z"/>
<path d="M3700 5025 l0 -55 51 0 50 0 -3 52 -3 52 -47 2 -48 3 0 -54z"/>
<path d="M3920 5035 c0 -10 9 -15 28 -14 16 1 20 3 10 6 -10 2 -18 9 -18 14 0
5 -4 9 -10 9 -5 0 -10 -7 -10 -15z"/>
<path d="M3070 4738 c0 -7 5 -20 10 -28 8 -12 10 -9 10 13 0 15 -4 27 -10 27
-5 0 -10 -6 -10 -12z"/>
<path d="M2864 5368 c-3 -5 2 -16 12 -24 11 -9 14 -13 7 -10 -6 4 -14 2 -18
-4 -4 -6 4 -10 19 -10 14 0 28 5 31 10 3 6 0 10 -7 10 -10 0 -10 2 -1 8 7 4 9
12 5 17 -9 13 -41 15 -48 3z"/>
<path d="M3106 5350 c-17 -6 -18 -7 -3 -13 9 -3 19 -2 23 4 9 15 2 18 -20 9z"/>
<path d="M4373 5022 c0 -12 5 -22 9 -22 11 0 10 12 -2 30 -7 12 -9 10 -7 -8z"/>
<path d="M4050 4911 c0 -11 24 -21 51 -21 11 0 17 5 14 10 -4 6 -10 8 -15 5
-5 -3 -19 -1 -30 5 -11 6 -20 7 -20 1z"/>
<path d="M3340 4715 c0 -8 5 -15 10 -15 6 0 10 7 10 15 0 8 -4 15 -10 15 -5 0
-10 -7 -10 -15z"/>
<path d="M4200 4670 c-13 -8 -12 -10 3 -10 9 0 17 5 17 10 0 12 -1 12 -20 0z"/>
<path d="M3350 4659 c0 -5 5 -7 10 -4 6 3 10 8 10 11 0 2 -4 4 -10 4 -5 0 -10
-5 -10 -11z"/>
<path d="M3130 4475 c0 -19 4 -35 10 -35 5 0 9 16 7 35 -3 45 -17 45 -17 0z"/>
<path d="M3080 4450 c0 -5 5 -10 11 -10 5 0 7 5 4 10 -3 6 -8 10 -11 10 -2 0
-4 -4 -4 -10z"/>
<path d="M3160 4381 l0 -49 38 -4 c64 -8 72 -2 72 53 l0 49 -55 0 -55 0 0 -49z"/>
<path d="M3021 4394 c0 -11 3 -14 6 -6 3 7 2 16 -1 19 -3 4 -6 -2 -5 -13z"/>
<path d="M3368 4393 c7 -3 16 -2 19 1 4 3 -2 6 -13 5 -11 0 -14 -3 -6 -6z"/>
<path d="M3451 4393 c0 -5 4 -17 9 -28 8 -18 9 -17 9 8 1 15 -3 27 -9 27 -5 0
-10 -3 -9 -7z"/>
<path d="M5136 4445 c-4 -11 -20 -15 -55 -15 -47 0 -53 -3 -100 -51 -54 -55
-64 -83 -31 -92 11 -3 20 -10 20 -15 0 -6 -9 -14 -20 -17 -29 -9 -24 -35 15
-77 31 -34 39 -38 85 -38 36 0 52 -4 56 -15 4 -11 21 -15 55 -15 35 0 51 4 55
15 4 8 13 15 21 15 8 0 11 5 8 11 -4 6 2 13 14 16 12 3 21 11 21 19 0 7 6 17
14 21 13 7 46 75 46 94 0 4 -9 11 -21 14 -16 5 -19 12 -15 30 4 17 1 24 -15
28 -12 3 -18 10 -14 16 3 6 0 11 -8 11 -8 0 -17 7 -21 15 -3 10 -19 15 -46 15
-29 0 -40 4 -40 15 0 8 -4 15 -9 15 -5 0 -11 -7 -15 -15z m-30 -106 c8 -14
-18 -31 -30 -19 -9 9 0 30 14 30 5 0 12 -5 16 -11z m114 -9 c0 -5 -4 -10 -10
-10 -5 0 -10 5 -10 10 0 6 5 10 10 10 6 0 10 -4 10 -10z m-150 -30 c0 -5 -7
-10 -15 -10 -8 0 -15 5 -15 10 0 6 7 10 15 10 8 0 15 -4 15 -10z m72 -37 c13
-27 48 -44 48 -24 0 6 -7 11 -15 11 -8 0 -15 9 -15 20 0 11 7 20 15 20 8 0 15
-7 15 -15 0 -8 6 -15 14 -15 20 0 26 -12 19 -39 -5 -18 -11 -22 -42 -19 -22 2
-35 8 -33 16 1 7 -8 12 -21 12 -13 0 -28 5 -35 12 -9 9 -12 9 -12 0 0 -7 -9
-12 -20 -12 -26 0 -26 17 0 25 11 3 19 9 19 13 -3 17 3 22 25 22 17 0 29 -9
38 -27z"/>
<path d="M2270 4190 c-19 -24 -32 -30 -61 -30 -30 0 -39 -5 -45 -22 l-7 -22
-19 24 c-18 22 -19 22 -32 5 -18 -25 -45 -27 -59 -4 -13 21 -57 26 -57 7 0 -7
-14 -22 -30 -33 -21 -13 -29 -26 -26 -38 2 -10 -4 -23 -15 -30 -21 -13 -27
-67 -6 -67 6 0 0 -8 -15 -18 -30 -18 -37 -49 -13 -58 10 -4 15 -20 15 -45 0
-27 5 -41 18 -48 23 -12 22 -49 -1 -66 -25 -18 -22 -72 5 -86 l21 -11 -23 -18
c-15 -12 -21 -23 -17 -35 5 -12 1 -18 -13 -22 -25 -7 -25 -15 -1 -30 13 -8 18
-19 14 -33 -4 -14 -1 -20 11 -20 9 0 16 -3 17 -7 6 -78 5 -84 -11 -93 -11 -6
-17 -23 -18 -54 -2 -52 22 -86 62 -86 13 0 26 -7 30 -15 3 -8 14 -15 25 -15
10 0 21 7 25 15 3 8 16 15 29 15 14 0 30 -7 37 -15 7 -8 19 -15 26 -15 21 0
56 39 50 55 -3 8 4 21 16 29 15 11 19 22 16 46 -4 23 0 35 14 43 23 15 23 44
0 56 -24 13 -22 79 2 96 24 18 20 52 -6 59 l-23 6 23 19 c24 21 30 61 9 61
-19 0 -50 37 -52 61 -1 11 7 24 17 30 24 13 23 46 -3 60 -21 11 -21 11 7 37
15 15 36 28 47 29 23 4 73 -47 69 -70 -2 -9 9 -22 25 -31 l28 -14 -27 -7 c-16
-4 -28 -9 -28 -12 0 -3 20 -24 45 -49 25 -24 45 -48 45 -54 0 -16 39 -6 53 15
10 12 22 16 41 13 39 -8 106 61 101 103 -2 20 2 32 14 38 23 13 24 49 0 61
-10 6 -19 19 -19 29 0 11 -14 31 -31 45 -20 18 -29 32 -25 43 4 10 -1 21 -14
30 -12 9 -19 21 -16 31 8 24 -54 65 -85 57 -19 -4 -28 1 -44 25 -15 23 -26 30
-42 27 -16 -3 -24 2 -28 14 -8 25 -16 23 -45 -11z m-25 -60 c3 -5 1 -10 -4
-10 -6 0 -11 5 -11 10 0 6 2 10 4 10 3 0 8 -4 11 -10z m8 -111 c3 -12 -1 -20
-14 -24 -29 -10 -48 6 -38 32 9 26 45 21 52 -8z m235 -121 c3 -24 0 -28 -22
-28 -30 0 -37 9 -29 39 8 33 47 25 51 -11z m-390 -145 c-2 -20 -9 -29 -25 -31
-19 -3 -23 1 -23 21 0 25 11 35 38 36 9 1 12 -9 10 -26z"/>
<path d="M3001 4182 c-7 -13 -21 -22 -36 -22 -15 0 -26 -7 -30 -20 -5 -16 -12
-19 -28 -14 -12 3 -27 12 -33 20 -21 26 -69 17 -107 -21 -42 -42 -43 -45 -25
-57 9 -7 7 -8 -8 -4 -33 10 -54 -23 -60 -96 -5 -60 -4 -66 15 -71 24 -6 24
-42 0 -61 -20 -15 -18 -68 2 -83 19 -14 18 -52 -3 -67 -19 -14 -19 -97 1 -112
21 -16 23 -47 4 -61 -23 -18 -24 -51 -1 -59 23 -7 23 -15 0 -35 -40 -34 -5
-147 41 -135 12 3 21 -3 27 -19 7 -17 14 -21 34 -18 14 3 26 12 26 19 0 23 48
17 61 -8 10 -18 13 -19 17 -8 3 8 24 34 48 57 48 47 54 67 24 85 -13 9 -18 19
-14 34 4 17 0 24 -17 29 -21 7 -21 8 15 41 38 35 46 61 21 70 -9 4 -15 19 -15
35 0 17 6 32 15 35 21 9 19 41 -4 54 -21 11 -18 49 6 63 8 5 13 29 13 70 0 34
4 67 8 72 4 6 24 10 45 11 24 0 33 -3 25 -8 -10 -7 -8 -13 9 -24 17 -12 21
-22 16 -45 -5 -26 2 -36 56 -87 33 -32 61 -63 61 -68 0 -6 18 -10 39 -10 31 0
41 4 45 19 3 13 10 18 21 13 11 -4 29 7 56 35 46 48 48 61 14 79 l-26 14 26
15 c39 24 34 69 -14 106 -30 23 -36 33 -28 44 9 10 6 17 -8 28 -11 8 -19 20
-17 27 3 18 -65 86 -87 86 -9 0 -28 13 -41 30 -22 25 -32 29 -77 30 -43 0 -53
-3 -58 -20 -9 -28 -22 -25 -32 7 l-10 28 -12 -23z m199 -122 c0 -5 7 -10 15
-10 8 0 15 -9 15 -20 0 -11 -5 -20 -12 -20 -9 0 -9 -3 0 -12 7 -7 12 -20 12
-30 0 -10 6 -17 13 -15 7 1 13 -10 15 -25 2 -16 -1 -28 -7 -28 -6 0 -11 6 -11
14 0 8 -7 16 -15 20 -8 3 -15 16 -15 30 0 16 -7 26 -22 30 -22 6 -22 7 -5 20
19 14 23 36 7 36 -5 0 -10 5 -10 10 0 6 5 10 10 10 6 0 10 -4 10 -10z m-361
-122 c11 -30 6 -38 -25 -38 -20 0 -24 5 -24 30 0 23 4 30 20 30 12 0 24 -9 29
-22z"/>
<path d="M3680 4179 c0 -15 -41 -48 -60 -49 -8 0 -40 -27 -72 -60 -31 -33 -61
-60 -67 -60 -6 0 -8 -16 -5 -41 4 -35 2 -41 -16 -46 -32 -8 -24 -28 30 -79 28
-26 50 -54 50 -63 -1 -26 -28 -57 -40 -45 -7 7 -32 -11 -76 -55 l-65 -65 23
-18 c13 -10 19 -18 13 -18 -5 0 -17 -5 -25 -10 -13 -8 -12 -11 5 -24 25 -18
26 -47 3 -64 -28 -20 -22 -41 25 -86 23 -22 41 -44 40 -48 -2 -5 11 -8 27 -8
20 0 30 -5 30 -15 0 -8 4 -15 9 -15 5 0 14 7 21 15 20 23 49 18 77 -15 30 -37
86 -42 103 -10 10 19 12 18 40 -12 17 -17 30 -35 30 -41 0 -5 6 -4 14 2 11 9
20 4 44 -24 33 -37 66 -46 76 -20 9 25 50 17 76 -15 33 -38 52 -37 95 5 27 27
35 44 35 70 0 24 -5 35 -15 35 -8 0 -15 4 -15 10 0 5 -12 16 -27 24 -16 8 -23
15 -18 16 19 0 75 59 75 78 0 12 -9 22 -22 26 l-23 6 23 20 c22 18 22 19 4 29
-23 12 -22 49 1 66 22 16 22 42 -1 54 -14 7 -17 18 -14 48 3 21 12 43 20 49
14 10 12 13 -12 26 l-27 14 25 12 c35 16 33 37 -8 72 -26 23 -32 35 -28 55 2
14 11 25 18 25 20 0 17 13 -6 28 -11 6 -17 18 -14 25 3 8 -26 45 -71 89 -41
42 -75 80 -75 86 0 6 -13 7 -36 2 -29 -7 -37 -5 -47 11 -15 24 -43 24 -58 1
-13 -21 -57 -18 -66 4 -6 17 -23 19 -23 3z m-123 -275 c-9 -9 -28 6 -21 18 4
6 10 6 17 -1 6 -6 8 -13 4 -17z m252 -4 c-9 -6 -3 -17 24 -41 41 -36 47 -61
19 -81 -10 -7 -21 -21 -25 -31 -6 -16 -9 -17 -22 -3 -8 8 -15 18 -15 23 0 4
-38 7 -84 5 -54 -1 -87 2 -92 9 -8 14 64 89 86 89 10 0 24 8 34 19 11 12 25
16 41 13 15 -2 25 0 25 7 0 7 5 9 11 5 8 -4 7 -9 -2 -14z m64 -167 c-7 -2 -19
-2 -25 0 -7 3 -2 5 12 5 14 0 19 -2 13 -5z m-288 -104 c0 -19 -5 -24 -25 -24
-19 0 -24 5 -23 23 1 30 0 29 26 27 16 -1 22 -8 22 -26z m240 21 c3 -5 -1 -10
-10 -10 -8 0 -18 -7 -21 -15 -9 -24 -24 -17 -24 10 0 20 5 25 24 25 14 0 28
-4 31 -10z m13 -101 c-5 -3 -6 -13 -2 -22 4 -12 1 -17 -10 -17 -8 0 -20 -8
-25 -19 -8 -14 -23 -18 -75 -20 -55 -1 -67 1 -79 19 -8 12 -21 18 -29 15 -8
-3 -20 1 -27 9 -11 13 -10 18 2 30 8 8 17 12 21 9 14 -14 52 -9 64 8 15 22 50
25 58 5 10 -26 42 -26 59 0 15 23 16 23 33 6 10 -9 14 -20 10 -23z m-318 -29
c0 -12 7 -20 17 -20 27 0 9 -10 -25 -14 -29 -3 -32 -1 -32 25 0 22 5 29 20 29
13 0 20 -7 20 -20z m480 -10 c0 -16 -4 -30 -9 -30 -25 0 -41 14 -41 36 0 19 5
24 25 24 21 0 25 -5 25 -30z"/>
<path d="M4333 4172 c-8 -14 -20 -18 -41 -14 -24 3 -37 -3 -66 -32 -34 -34
-36 -40 -36 -100 0 -48 4 -65 15 -70 8 -3 15 -16 15 -30 0 -13 -7 -26 -15 -30
-9 -3 -15 -19 -15 -41 0 -22 6 -38 15 -41 8 -4 15 -18 15 -34 0 -16 -7 -30
-15 -34 -10 -3 -15 -19 -15 -45 0 -32 4 -40 23 -45 l22 -7 -22 -16 c-26 -18
-30 -48 -8 -57 10 -3 15 -19 15 -46 0 -27 -5 -43 -15 -46 -26 -10 -16 -44 23
-79 20 -19 32 -35 25 -35 -18 0 -43 -29 -43 -49 0 -25 45 -71 68 -71 11 0 22
-6 25 -14 8 -21 47 -27 55 -8 3 9 17 27 31 40 120 111 121 112 117 143 -1 16
-11 35 -21 43 -10 7 -15 18 -11 24 4 7 2 12 -4 12 -7 0 -5 6 4 15 8 8 19 15
25 15 16 0 5 72 -13 82 -21 12 -20 45 2 59 23 14 22 104 -2 122 -18 14 -16 45
4 57 7 5 14 26 14 47 1 37 2 38 44 44 52 7 63 -4 58 -59 -3 -39 0 -44 78 -123
64 -65 88 -83 114 -85 17 -2 32 1 32 7 0 5 21 29 46 54 32 30 45 49 40 60 -4
12 0 19 14 22 23 6 27 33 5 33 -10 0 -15 10 -15 30 0 20 -5 30 -15 30 -9 0
-15 9 -15 25 0 14 -8 29 -20 35 -10 6 -17 16 -14 24 6 16 -62 86 -83 86 -9 0
-42 27 -74 60 -32 33 -60 60 -62 60 -3 0 -8 -10 -11 -22 l-7 -23 -16 23 c-20
28 -78 31 -92 4 -8 -15 -17 -17 -53 -12 -26 3 -42 11 -40 18 4 21 -71 15 -85
-6z m55 -125 c3 -23 0 -27 -22 -27 -14 0 -26 4 -26 9 0 5 -3 16 -6 24 -3 10 1
17 13 20 29 7 38 2 41 -26z m360 -54 c-3 -24 1 -28 27 -33 24 -4 31 -11 33
-33 2 -15 9 -27 18 -27 22 0 17 -31 -6 -37 -11 -3 -20 -13 -20 -22 0 -13 2
-13 9 -2 6 9 11 10 15 3 4 -6 13 -9 21 -5 10 3 15 -1 15 -12 0 -11 -5 -15 -15
-11 -9 3 -15 0 -15 -9 0 -18 -30 -20 -31 -2 0 10 -2 10 -6 0 -5 -15 -43 -18
-43 -4 0 20 13 41 25 41 12 0 25 21 25 41 0 5 -7 9 -15 9 -8 0 -15 9 -15 20 0
11 -4 20 -10 20 -5 0 -10 7 -10 15 0 10 -10 15 -30 15 -20 0 -30 -5 -30 -15 0
-8 -7 -15 -15 -15 -8 0 -15 7 -15 15 0 8 -7 15 -15 15 -8 0 -15 7 -15 15 0 18
27 20 32 3 3 -8 14 -3 32 15 36 36 58 36 54 0z m5 -82 c3 -13 0 -18 -8 -15 -7
3 -16 1 -19 -4 -3 -6 1 -12 9 -16 20 -7 20 -56 0 -56 -8 0 -15 9 -15 20 0 11
-7 23 -15 26 -9 4 -15 19 -15 35 0 25 4 29 29 29 20 0 30 -6 34 -19z m47 -141
c0 -5 -4 -10 -10 -10 -5 0 -10 5 -10 10 0 6 5 10 10 10 6 0 10 -4 10 -10z
m-415 -29 c3 -5 1 -12 -5 -16 -5 -3 -10 1 -10 9 0 18 6 21 15 7z m27 -74 c-9
-18 -21 9 -15 33 l7 25 6 -25 c4 -14 5 -29 2 -33z m-24 -121 c5 -23 -10 -38
-30 -31 -17 7 -30 40 -20 50 12 12 47 -1 50 -19z"/>
<path d="M1541 4139 c-9 -21 -16 -27 -21 -19 -5 8 -23 11 -49 8 -33 -3 -42 0
-47 14 -7 22 -50 24 -58 3 -3 -8 -14 -15 -25 -15 -12 0 -54 -34 -101 -81 -68
-70 -80 -87 -80 -116 0 -21 -6 -36 -16 -40 -9 -3 -14 -13 -11 -25 3 -12 -2
-22 -15 -29 -16 -8 -19 -18 -16 -46 3 -26 0 -38 -13 -46 -17 -10 -16 -12 7
-27 l24 -17 -25 -13 c-32 -17 -32 -43 1 -60 l25 -14 -27 -14 c-26 -14 -26 -14
-5 -28 11 -8 18 -21 15 -29 -3 -8 14 -32 42 -59 53 -52 66 -85 34 -93 -11 -3
-20 -7 -20 -9 0 -12 74 -74 85 -70 7 2 27 -12 44 -31 17 -20 33 -34 35 -32 2
2 7 12 13 22 9 17 12 15 41 -17 32 -37 72 -48 72 -21 0 19 29 20 36 2 3 -9 24
-15 54 -16 38 -1 54 3 70 19 11 11 20 22 20 23 0 2 18 23 41 46 37 40 41 42
46 22 3 -12 7 -21 10 -21 14 0 81 74 77 85 -3 7 11 26 30 43 20 17 36 36 36
42 0 6 -18 28 -41 49 -32 31 -46 38 -69 34 -22 -3 -32 1 -42 16 -18 29 -45 26
-61 -5 -9 -17 -17 -23 -21 -15 -16 25 -52 9 -96 -44 l-45 -53 -13 25 c-9 16
-19 22 -29 19 -9 -4 -25 4 -40 20 -19 21 -23 35 -21 68 3 40 4 41 42 42 30 0
41 6 51 24 l13 24 13 -22 c18 -29 53 -28 66 0 l10 23 14 -25 c17 -31 67 -35
87 -8 9 12 22 16 43 14 24 -3 37 4 65 33 19 20 33 43 30 52 -2 11 6 21 23 29
l26 12 -22 11 c-14 6 -23 19 -23 32 0 13 10 29 23 38 21 14 21 15 3 23 -11 4
-36 24 -56 45 -27 28 -34 41 -26 50 8 8 8 13 -1 16 -6 2 -21 13 -34 24 -12 10
-28 19 -34 19 -7 0 -30 19 -52 43 -22 24 -46 41 -53 39 -7 -3 -20 5 -29 17
l-16 21 -14 -31z m-121 -79 c0 -5 -4 -10 -9 -10 -6 0 -13 5 -16 10 -3 6 1 10
9 10 9 0 16 -4 16 -10z m-50 -30 c11 -11 20 -24 20 -30 0 -5 6 -10 14 -10 22
0 30 -19 11 -27 -10 -3 -21 0 -25 8 -5 7 -13 10 -17 5 -4 -5 -2 -11 5 -13 11
-4 18 -33 7 -33 -10 0 -71 66 -78 83 -15 40 29 51 63 17z m200 -10 c0 -31 -23
-42 -34 -17 -5 10 -7 10 -12 0 -6 -13 -44 -19 -44 -7 0 16 47 54 68 54 18 0
22 -6 22 -30z m60 15 c0 -8 7 -15 15 -15 10 0 15 -10 15 -30 0 -20 5 -30 15
-30 18 0 20 -31 3 -48 -7 -7 -20 -12 -30 -12 -10 0 -18 -7 -18 -15 0 -8 -7
-15 -15 -15 -10 0 -15 10 -15 30 0 25 -4 30 -25 30 -14 0 -25 2 -25 5 0 8 49
53 63 58 9 3 9 8 0 18 -18 18 -16 39 2 39 8 0 15 -7 15 -15z m-180 -5 c0 -5
-4 -10 -9 -10 -6 0 -13 5 -16 10 -3 6 1 10 9 10 9 0 16 -4 16 -10z m-150 -60
c0 -11 7 -20 15 -20 8 0 15 -4 15 -10 0 -5 7 -10 15 -10 8 0 15 -7 15 -15 0
-22 -26 -18 -43 5 -8 11 -16 17 -20 14 -8 -8 -29 35 -22 46 10 17 25 11 25
-10z m240 12 c0 -13 -12 -22 -22 -16 -10 6 -1 24 13 24 5 0 9 -4 9 -8z m-254
-104 c29 -28 30 -38 5 -38 -11 0 -21 -5 -23 -12 -2 -6 -14 -13 -27 -15 -15 -2
-21 1 -19 9 3 7 14 14 26 16 25 4 29 17 7 26 -17 6 -20 36 -4 36 6 0 22 -10
35 -22z m127 -55 c-7 -2 -19 -2 -25 0 -7 3 -2 5 12 5 14 0 19 -2 13 -5z m-113
-25 c-1 -33 -50 -65 -50 -33 0 8 7 15 15 15 8 0 15 7 15 15 0 8 5 15 10 15 6
0 10 -6 10 -12z m180 3 c0 -6 -4 -13 -10 -16 -5 -3 -10 1 -10 9 0 9 5 16 10
16 6 0 10 -4 10 -9z m120 -41 c0 -10 -6 -23 -13 -27 -8 -4 -17 -16 -20 -26 -4
-10 -11 -16 -16 -12 -6 3 -8 12 -4 20 4 11 -3 15 -25 15 -29 0 -48 21 -36 41
10 16 24 9 24 -12 0 -16 5 -20 20 -16 10 3 21 0 23 -7 2 -6 8 -8 12 -3 5 4 3
13 -3 19 -8 8 -7 14 6 24 20 15 32 9 32 -16z m-270 5 c0 -8 -7 -15 -15 -15 -8
0 -15 -7 -15 -15 0 -8 -4 -15 -10 -15 -14 0 -13 16 2 40 15 24 38 26 38 5z
m92 -18 c-3 -19 1 -27 12 -27 9 0 16 -7 16 -15 0 -8 -5 -15 -10 -15 -6 0 -13
7 -16 15 -4 9 -19 15 -35 15 -19 0 -29 -5 -29 -15 0 -16 -9 -19 -33 -9 -11 4
-4 15 27 45 47 45 73 47 68 6z m-172 -57 c0 -23 -4 -30 -20 -30 -16 0 -20 7
-20 30 0 23 4 30 20 30 16 0 20 -7 20 -30z m374 9 c-3 -5 -10 -7 -15 -3 -5 3
-7 10 -3 15 3 5 10 7 15 3 5 -3 7 -10 3 -15z m-234 -24 c0 -8 -4 -15 -9 -15
-13 0 -22 16 -14 24 11 11 23 6 23 -9z m-30 -249 c0 -24 -23 -41 -41 -30 -5 3
-9 16 -9 30 0 19 5 24 25 24 20 0 25 -5 25 -24z m266 -21 c4 -8 4 -21 1 -29
-9 -22 -44 -8 -50 20 -3 20 0 24 20 24 13 0 26 -7 29 -15z"/>
<path d="M1340 4000 c0 -5 5 -10 10 -10 6 0 10 5 10 10 0 6 -4 10 -10 10 -5 0
-10 -4 -10 -10z"/>
<path d="M1600 3945 c0 -10 10 -15 30 -15 20 0 30 5 30 15 0 10 -10 15 -30 15
-20 0 -30 -5 -30 -15z"/>
<path d="M5621 4129 c-17 -21 -30 -29 -44 -25 -13 3 -21 -1 -24 -15 -3 -10
-12 -19 -19 -19 -8 0 -14 -7 -14 -15 0 -8 -6 -15 -13 -15 -17 0 -21 -60 -4
-60 7 0 0 -8 -15 -17 -23 -15 -27 -23 -25 -62 2 -37 8 -51 35 -76 30 -27 32
-33 23 -58 -6 -15 -17 -27 -25 -25 -7 2 -36 -19 -65 -45 -48 -45 -51 -51 -51
-97 0 -40 -4 -51 -21 -61 l-21 -11 21 -14 c14 -10 21 -26 21 -49 0 -24 7 -39
25 -53 14 -11 25 -25 25 -31 0 -6 14 -11 30 -11 20 0 30 -5 30 -15 0 -9 9 -15
25 -15 14 0 28 -7 31 -15 4 -8 17 -15 30 -15 13 0 29 -8 35 -18 15 -24 67 -17
90 11 l16 21 7 -22 c4 -12 14 -22 22 -22 8 0 14 -7 14 -15 0 -9 9 -15 23 -15
13 0 33 -13 47 -30 29 -34 66 -39 75 -10 8 26 22 26 30 -1 5 -14 13 -19 26
-16 12 3 23 -2 29 -14 16 -29 44 -23 84 17 36 36 48 74 22 74 -23 0 -26 50 -5
63 24 15 24 43 0 56 -10 6 -18 21 -18 35 0 16 6 28 18 31 26 9 25 51 -1 58
-11 3 -20 10 -20 15 0 6 9 14 20 17 24 8 26 41 3 54 -13 7 -16 20 -14 56 2 37
-1 50 -17 61 -22 15 -19 62 4 71 25 9 14 37 -27 70 l-40 32 25 7 c35 8 35 46
1 64 -14 7 -25 17 -25 22 0 5 5 6 10 3 29 -18 2 19 -56 78 -56 57 -71 67 -100
67 -22 0 -37 6 -40 15 -4 8 -16 15 -29 15 -13 0 -25 -7 -29 -15 -3 -8 -17 -15
-31 -15 -14 0 -28 7 -31 15 -10 25 -47 16 -73 -16z m159 -69 c0 -5 -4 -10 -10
-10 -5 0 -10 5 -10 10 0 6 5 10 10 10 6 0 10 -4 10 -10z m43 -30 c21 -25 22
-40 2 -40 -8 0 -15 5 -15 12 0 9 -3 9 -12 0 -17 -17 -38 -15 -38 3 0 8 7 15
15 15 8 0 15 7 15 15 0 21 12 19 33 -5z m74 -12 c-4 -14 0 -22 14 -25 31 -8
23 -33 -11 -33 -20 0 -30 -5 -30 -15 0 -8 -4 -15 -10 -15 -15 0 -12 36 5 50 8
7 15 26 15 42 0 18 4 27 11 22 6 -3 8 -15 6 -26z m-147 12 c0 -5 -4 -10 -10
-10 -5 0 -10 5 -10 10 0 6 5 10 10 10 6 0 10 -4 10 -10z m-52 -37 c-2 -22 -9
-29 -30 -31 -30 -4 -38 -26 -13 -36 8 -3 15 -10 15 -16 0 -5 -7 -10 -15 -10
-8 0 -15 7 -15 15 0 8 -9 15 -20 15 -11 0 -20 -7 -20 -15 0 -8 -4 -15 -10 -15
-5 0 -9 11 -8 25 1 14 7 25 13 25 7 0 25 16 41 35 37 43 67 47 62 8z m257 -78
c0 -5 -17 -11 -37 -13 -30 -3 -38 0 -38 13 0 13 8 16 38 13 20 -2 37 -7 37
-13z m-153 -37 c12 -12 18 -33 18 -67 0 -65 -8 -85 -26 -70 -8 6 -14 18 -14
25 0 25 -18 15 -25 -13 l-7 -28 -15 23 c-12 16 -25 22 -55 22 -58 0 -57 20 8
82 61 59 79 63 116 26z m-202 -17 c0 -12 -39 -21 -45 -11 -3 5 3 11 12 13 29
8 33 7 33 -2z m-12 -98 c-10 -2 -26 -2 -35 0 -10 3 -2 5 17 5 19 0 27 -2 18
-5z m275 -30 c-7 -2 -19 -2 -25 0 -7 3 -2 5 12 5 14 0 19 -2 13 -5z m-267 -70
c-10 -10 -19 5 -10 18 6 11 8 11 12 0 2 -7 1 -15 -2 -18z m-59 -24 c-4 -14 -2
-19 7 -16 7 3 19 1 27 -4 10 -6 4 -9 -19 -9 -25 0 -35 -6 -41 -22 -8 -20 -10
-21 -16 -6 -4 10 2 28 16 47 27 36 33 39 26 10z m421 -10 c3 -23 -1 -26 -22
-26 -22 0 -26 4 -26 29 0 25 4 29 23 26 15 -2 23 -11 25 -29z m-479 -61 c-1
-31 -1 -31 -8 -8 -5 14 -6 28 -4 33 9 15 13 6 12 -25z m541 7 c0 -25 -14 -34
-24 -16 -8 12 3 41 15 41 5 0 9 -11 9 -25z m-262 -19 c4 -18 6 -18 23 5 17 21
21 22 32 8 6 -9 23 -21 35 -28 l24 -13 -21 -15 c-12 -8 -28 -12 -36 -9 -7 2
-21 -6 -30 -20 -11 -18 -20 -22 -28 -16 -7 6 -35 8 -64 6 -45 -4 -52 -2 -58
16 -3 11 -13 20 -21 20 -8 0 -12 -4 -9 -10 3 -5 1 -10 -4 -10 -13 0 -13 2 -1
35 8 22 15 26 34 21 18 -4 26 -1 30 12 9 27 89 25 94 -2z m-243 -86 c3 -5 -1
-10 -9 -10 -9 0 -16 5 -16 10 0 6 4 10 9 10 6 0 13 -4 16 -10z m443 -81 c3
-23 0 -26 -22 -22 -20 4 -26 11 -26 30 0 36 44 29 48 -8z m-58 -99 c0 -5 -11
-10 -25 -10 -14 0 -25 5 -25 10 0 6 11 10 25 10 14 0 25 -4 25 -10z m137 -52
c-3 -7 -5 -2 -5 12 0 14 2 19 5 13 2 -7 2 -19 0 -25z"/>
<path d="M1049 4100 l-35 -38 22 -21 c27 -26 39 -26 64 -1 21 21 27 60 10 60
-6 0 -14 8 -18 19 -6 16 -11 14 -43 -19z"/>
<path d="M5073 4072 c-57 -4 -113 -58 -113 -108 0 -23 5 -34 14 -34 11 0 15
-18 18 -71 2 -60 0 -73 -14 -80 -23 -12 -25 -74 -3 -83 9 -3 15 -18 15 -35 0
-16 -6 -31 -15 -35 -19 -7 -20 -42 -1 -49 8 -3 16 -24 18 -47 3 -32 0 -44 -14
-51 -23 -12 -25 -74 -3 -83 8 -3 15 -14 15 -25 0 -11 23 -43 50 -71 46 -45 55
-50 95 -50 37 0 50 6 79 35 20 19 33 41 31 48 -3 6 17 34 45 60 53 51 61 70
33 86 -25 13 -26 89 -1 97 24 7 22 71 -4 85 -24 13 -23 46 2 61 11 7 20 20 20
28 0 8 -9 21 -20 28 -26 16 -25 46 2 64 l22 15 -21 11 c-17 9 -20 18 -16 46 4
30 1 37 -24 50 -15 8 -22 15 -15 16 20 0 14 15 -26 57 -37 38 -39 39 -48 19
-11 -24 -41 -23 -64 2 -11 12 -27 16 -57 14z m27 -102 c0 -11 7 -20 15 -20 8
0 15 -4 15 -10 0 -16 27 -12 34 5 3 8 17 15 31 15 16 0 25 -6 25 -15 0 -10
-10 -15 -30 -15 -27 0 -30 -3 -30 -31 0 -22 5 -32 20 -36 31 -8 24 -19 -12
-18 -30 0 -33 3 -36 34 -3 33 -21 61 -40 61 -11 0 -23 36 -14 44 11 12 22 5
22 -14z m120 -90 c0 -12 7 -20 16 -20 10 0 14 -7 12 -22 -2 -13 -7 -21 -13
-18 -5 3 -9 8 -8 11 1 4 -7 15 -17 24 -24 21 -26 45 -5 45 8 0 15 -9 15 -20z
m-117 -25 c1 -5 -6 -11 -15 -13 -11 -2 -18 3 -18 13 0 17 30 18 33 0z m27 -75
c0 -16 -5 -30 -11 -30 -7 0 -18 -8 -25 -17 -12 -17 -13 -17 -14 -1 0 9 5 20
10 23 6 3 10 10 10 16 0 5 -4 9 -10 9 -5 0 -10 -7 -10 -16 0 -9 -7 -14 -17
-12 -21 4 -30 28 -10 28 8 0 17 7 21 15 3 8 17 15 31 15 21 0 25 -5 25 -30z
m60 15 c0 -8 7 -15 15 -15 10 0 15 -10 15 -30 0 -27 -3 -30 -30 -30 -20 0 -30
-5 -30 -15 0 -8 -7 -15 -15 -15 -8 0 -15 -7 -15 -15 0 -8 -4 -15 -10 -15 -5 0
-10 9 -10 21 0 20 55 79 75 79 5 0 2 5 -7 11 -22 12 -24 39 -3 39 8 0 15 -7
15 -15z m0 -116 c0 -6 14 -27 30 -46 33 -38 38 -53 14 -53 -8 0 -12 5 -9 10 3
6 0 10 -7 10 -20 0 -58 45 -58 69 0 12 6 21 15 21 8 0 15 -5 15 -11z m-60 -59
c0 -21 -16 -26 -39 -11 -11 7 -10 11 5 20 27 15 34 14 34 -9z m-60 -30 c0 -5
-4 -10 -10 -10 -5 0 -10 5 -10 10 0 6 5 10 10 10 6 0 10 -4 10 -10z m60 -50
c0 -20 -5 -30 -15 -30 -8 0 -15 -7 -15 -15 0 -8 -4 -15 -10 -15 -5 0 -10 9
-10 20 0 11 5 20 12 20 6 0 4 7 -5 18 -20 22 -13 32 20 32 19 0 23 -5 23 -30z
m60 9 c0 -24 -23 -21 -28 4 -2 10 3 17 12 17 10 0 16 -9 16 -21z m29 -45 c9
-8 -13 -24 -35 -24 -15 0 -24 -6 -24 -15 0 -8 -7 -15 -15 -15 -8 0 -15 -7 -15
-16 0 -9 -6 -14 -12 -11 -20 7 -10 36 23 68 23 22 36 28 52 23 12 -3 24 -8 26
-10z m31 -38 c0 -19 -27 -46 -46 -46 -8 0 -14 -7 -14 -16 0 -26 -25 -9 -28 19
-3 24 0 27 27 27 21 0 31 5 31 15 0 8 7 15 15 15 8 0 15 -6 15 -14z m-180 -62
c0 -17 -22 -14 -28 4 -2 7 3 12 12 12 9 0 16 -7 16 -16z m60 -24 c0 -11 -7
-20 -15 -20 -8 0 -15 -4 -15 -10 0 -5 -4 -10 -10 -10 -17 0 -11 38 8 49 25 15
32 13 32 -9z"/>
<path d="M4654 3608 l-21 -21 21 -21 c11 -11 28 -19 38 -18 9 2 22 -6 28 -18
11 -21 11 -21 32 5 20 25 20 26 2 40 -11 8 -22 15 -26 15 -4 0 -10 9 -13 20
-8 26 -35 25 -61 -2z"/>
<path d="M3180 3526 c0 -8 -13 -23 -30 -33 -34 -19 -37 -28 -15 -37 8 -3 15
-12 15 -21 0 -25 17 -17 25 13 l7 27 15 -22 c19 -28 47 -29 73 -3 23 23 25 30
7 30 -7 0 -23 14 -37 30 -26 31 -60 40 -60 16z"/>
<path d="M2550 4610 c-9 -6 -10 -10 -3 -10 6 0 15 5 18 10 8 12 4 12 -15 0z"/>
<path d="M2580 4591 c0 -25 6 -27 13 -6 4 8 2 17 -3 20 -6 4 -10 -3 -10 -14z"/>
<path d="M2548 4573 c7 -3 16 -2 19 1 4 3 -2 6 -13 5 -11 0 -14 -3 -6 -6z"/>
<path d="M3505 2580 c-3 -5 0 -10 9 -10 8 0 16 -5 18 -12 3 -8 12 -5 28 10
l24 22 -37 0 c-19 0 -39 -4 -42 -10z"/>
<path d="M3560 2540 c0 -11 5 -20 10 -20 6 0 10 9 10 20 0 11 -4 20 -10 20 -5
0 -10 -9 -10 -20z"/>
<path d="M3535 2530 c3 -5 8 -10 11 -10 2 0 4 5 4 10 0 6 -5 10 -11 10 -5 0
-7 -4 -4 -10z"/>
<path d="M3560 2040 c0 -5 5 -10 11 -10 5 0 7 5 4 10 -3 6 -8 10 -11 10 -2 0
-4 -4 -4 -10z"/>
<path d="M3636 1831 c-3 -5 1 -11 9 -15 9 -3 15 0 15 9 0 16 -16 20 -24 6z"/>
<path d="M3630 1760 l-25 -8 28 -1 c15 -1 27 4 27 9 0 6 -1 10 -2 9 -2 -1 -14
-5 -28 -9z"/>
<path d="M3600 1610 c0 -5 4 -10 9 -10 6 0 13 5 16 10 3 6 -1 10 -9 10 -9 0
-16 -4 -16 -10z"/>
<path d="M3645 1610 c3 -5 8 -10 11 -10 2 0 4 5 4 10 0 6 -5 10 -11 10 -5 0
-7 -4 -4 -10z"/>
<path d="M3596 1563 c0 -15 7 -29 14 -31 9 -3 11 1 7 12 -4 10 -7 24 -7 32 0
8 -4 14 -8 14 -4 0 -7 -12 -6 -27z"/>
<path d="M3669 968 c-7 -24 -5 -38 6 -38 8 0 11 7 8 20 -5 17 -11 26 -14 18z"/>
<path d="M3825 860 c3 -5 8 -10 11 -10 2 0 4 5 4 10 0 6 -5 10 -11 10 -5 0 -7
-4 -4 -10z"/>
<path d="M3877 863 c-3 -5 1 -21 8 -38 l13 -30 1 38 c1 33 -11 49 -22 30z"/>
<path d="M3600 685 c0 -8 4 -15 10 -15 5 0 7 7 4 15 -4 8 -8 15 -10 15 -2 0
-4 -7 -4 -15z"/>
<path d="M3487 654 c-4 -4 -7 -27 -7 -50 0 -47 7 -51 73 -52 23 0 27 4 28 29
1 16 2 39 2 52 1 19 -4 22 -44 25 -24 2 -48 0 -52 -4z"/>
<path d="M3708 627 c-6 -29 0 -47 16 -47 8 0 11 12 8 35 -5 40 -18 46 -24 12z"/>
<path d="M4186 635 c4 -8 8 -15 10 -15 2 0 4 7 4 15 0 8 -4 15 -10 15 -5 0 -7
-7 -4 -15z"/>
<path d="M3753 615 c0 -8 4 -15 9 -15 4 0 8 7 8 15 0 8 -4 15 -8 15 -5 0 -9
-7 -9 -15z"/>
<path d="M2209 2568 c-7 -24 -7 -50 -1 -40 5 7 16 10 27 6 16 -7 16 -6 -1 14
-18 21 -23 25 -25 20z"/>
<path d="M1940 2450 c0 -11 5 -20 10 -20 6 0 10 9 10 20 0 11 -4 20 -10 20 -5
0 -10 -9 -10 -20z"/>
<path d="M1870 2446 c0 -9 5 -16 10 -16 6 0 10 4 10 9 0 6 -4 13 -10 16 -5 3
-10 -1 -10 -9z"/>
<path d="M1870 2404 c0 -8 5 -12 10 -9 6 4 8 11 5 16 -9 14 -15 11 -15 -7z"/>
<path d="M1941 2411 c-10 -6 -10 -10 -1 -16 13 -8 24 -1 19 14 -3 6 -10 7 -18
2z"/>
<path d="M4208 2353 c6 -2 18 -2 25 0 6 3 1 5 -13 5 -14 0 -19 -2 -12 -5z"/>
<path d="M4037 2250 c3 -11 7 -20 9 -20 2 0 4 9 4 20 0 11 -4 20 -9 20 -5 0
-7 -9 -4 -20z"/>
<path d="M2570 2231 c-13 -26 -13 -40 1 -21 8 11 12 12 16 2 8 -19 22 -4 16
18 -7 25 -19 26 -33 1z"/>
<path d="M3910 2144 c0 -8 5 -12 10 -9 6 4 8 11 5 16 -9 14 -15 11 -15 -7z"/>
<path d="M3430 1046 c0 -8 -8 -17 -17 -19 -12 -3 -8 -5 9 -6 21 -1 25 3 21 19
-6 23 -13 26 -13 6z"/>
<path d="M1132 4970 c-23 -19 -23 -19 -2 -30 11 -6 21 -9 21 -8 1 3 6 58 4 58
0 -1 -10 -9 -23 -20z"/>
<path d="M628 4933 c6 -2 18 -2 25 0 6 3 1 5 -13 5 -14 0 -19 -2 -12 -5z"/>
<path d="M705 4930 c-3 -5 -15 -10 -26 -10 -16 0 -19 -4 -13 -22 8 -27 25 -50
31 -44 3 2 -1 14 -7 26 -10 18 -9 22 9 27 12 3 21 12 21 19 0 16 -6 18 -15 4z"/>
<path d="M1164 4929 c-3 -6 -1 -16 6 -22 10 -9 12 -8 7 5 -3 9 -1 19 6 22 9 3
9 5 0 5 -6 1 -15 -4 -19 -10z"/>
<path d="M5175 4930 c28 -7 27 -8 -14 -9 -24 0 -42 -4 -38 -7 9 -9 157 7 157
17 0 5 -30 8 -67 8 -53 -1 -61 -3 -38 -9z"/>
<path d="M480 4910 c0 -11 7 -20 15 -20 8 0 15 6 15 14 0 8 -7 16 -15 20 -10
4 -15 -1 -15 -14z"/>
<path d="M930 4874 c0 -8 9 -14 21 -14 11 0 19 5 17 12 -6 17 -38 19 -38 2z"/>
<path d="M1181 4833 c0 -18 -5 -33 -10 -33 -5 0 -12 -7 -15 -16 -5 -13 -3 -14
6 -7 7 6 18 12 23 14 6 2 8 19 4 39 l-6 35 -2 -32z"/>
<path d="M5243 4820 c0 -25 2 -35 4 -22 2 12 2 32 0 45 -2 12 -4 2 -4 -23z"/>
<path d="M510 4841 c0 -6 5 -13 10 -16 6 -3 10 1 10 9 0 9 -4 16 -10 16 -5 0
-10 -4 -10 -9z"/>
<path d="M268 4773 c6 -2 18 -2 25 0 6 3 1 5 -13 5 -14 0 -19 -2 -12 -5z"/>
<path d="M445 4769 c-4 -6 -5 -12 -2 -15 2 -3 7 2 10 11 7 17 1 20 -8 4z"/>
<path d="M1185 4770 c-13 -5 -14 -9 -5 -9 8 0 24 4 35 9 13 5 14 9 5 9 -8 0
-24 -4 -35 -9z"/>
<path d="M255 4750 c27 -12 43 -12 25 0 -8 5 -22 9 -30 9 -10 0 -8 -3 5 -9z"/>
<path d="M1228 4753 c6 -2 18 -2 25 0 6 3 1 5 -13 5 -14 0 -19 -2 -12 -5z"/>
<path d="M5241 4733 c0 -12 -4 -30 -7 -40 -5 -17 -5 -17 6 0 6 10 9 28 7 40
-4 22 -4 22 -6 0z"/>
<path d="M1258 4733 c7 -3 16 -2 19 1 4 3 -2 6 -13 5 -11 0 -14 -3 -6 -6z"/>
<path d="M5251 4654 c0 -11 3 -14 6 -6 3 7 2 16 -1 19 -3 4 -6 -2 -5 -13z"/>
<path d="M1417 4589 c4 -13 8 -18 11 -10 2 7 -1 18 -6 23 -8 8 -9 4 -5 -13z"/>
<path d="M83 4415 c0 -27 2 -38 4 -22 2 15 2 37 0 50 -2 12 -4 0 -4 -28z"/>
<path d="M82 4325 c0 -16 2 -22 5 -12 2 9 2 23 0 30 -3 6 -5 -1 -5 -18z"/>
<path d="M84 4055 c0 -132 2 -185 3 -117 2 68 2 176 0 240 -1 64 -3 9 -3 -123z"/>
<path d="M3723 2100 c0 -25 2 -35 4 -22 2 12 2 32 0 45 -2 12 -4 2 -4 -23z"/>
<path d="M3846 2065 c4 -8 8 -15 10 -15 2 0 4 7 4 15 0 8 -4 15 -10 15 -5 0
-7 -7 -4 -15z"/>
<path d="M3740 2056 c0 -2 7 -7 16 -10 8 -3 12 -2 9 4 -6 10 -25 14 -25 6z"/>
<path d="M3790 2049 c0 -5 5 -7 10 -4 6 3 10 8 10 11 0 2 -4 4 -10 4 -5 0 -10
-5 -10 -11z"/>
<path d="M3720 2029 c0 -4 14 -9 30 -11 17 -3 30 -1 30 3 0 4 -13 9 -30 11
-16 3 -30 1 -30 -3z"/>
<path d="M3810 2019 c0 -5 5 -7 10 -4 6 3 10 8 10 11 0 2 -4 4 -10 4 -5 0 -10
-5 -10 -11z"/>
<path d="M3800 1954 c0 -39 2 -45 14 -35 11 9 15 9 19 -1 3 -8 6 -6 6 5 1 10
-6 20 -14 23 -10 4 -13 13 -10 24 3 10 1 21 -5 25 -6 4 -10 -11 -10 -41z"/>
<path d="M3920 1970 c0 -12 28 -21 35 -11 2 5 -4 11 -15 14 -11 3 -20 2 -20
-3z"/>
<path d="M3935 1920 c4 -6 11 -8 16 -5 14 9 11 15 -7 15 -8 0 -12 -5 -9 -10z"/>
<path d="M4080 1811 l0 -101 -45 0 -45 0 0 -50 0 -50 45 0 c29 0 46 5 46 13 1
6 3 19 4 27 1 8 3 25 4 37 1 18 8 22 44 25 l42 3 0 95 0 95 -47 3 -48 3 0
-100z"/>
</g>
</svg>
